<?xml version="1.0" encoding="utf-8"?>
<!-- Generator: Adobe Illustrator 26.0.1, SVG Export Plug-In . SVG Version: 6.00 Build 0)  -->
<svg version="1.1" id="Layer_1" xmlns="http://www.w3.org/2000/svg" xmlns:xlink="http://www.w3.org/1999/xlink" x="0px" y="0px"
	 viewBox="0 0 800 800" style="enable-background:new 0 0 800 800;" xml:space="preserve">
<style type="text/css">
	.st0{fill:#2E3192;}
	.st1{fill:#2B3990;}
</style>
<g>
	<g>
		<path class="st0" d="M312.4,475.94c-0.65-1.3-1.47-2.52-2.33-3.69c-0.72-0.97-1.53-1.86-2.37-2.73c-1.04-1.07-2.14-2.09-3.27-3.06
			c-2.03-1.75-4.36-3.27-6.87-4.23c-0.56-0.22-1.14-0.38-1.73-0.52c-0.77-0.19-1.54-0.35-2.32-0.47c-1.46-0.21-2.98-0.09-4.43,0.14
			c-0.08,0.01-0.17,0.03-0.25,0.04c-1.3,0.23-2.57,0.67-3.82,1.08c-1.35,0.44-2.67,0.96-3.97,1.52c-1.2,0.51-2.35,1.14-3.45,1.83
			c-1.3,0.81-2.54,1.69-3.69,2.68c-1.03,0.89-1.95,1.89-2.86,2.9c-0.89,0.99-1.71,2.05-2.47,3.14c-0.81,1.16-1.48,2.44-2.06,3.73
			c-0.63,1.4-1.01,2.87-1.33,4.37c-0.05,0.22-0.09,0.44-0.13,0.66c-0.71,1.4-1.39,2.82-1.94,4.29c-0.44,1.15-0.88,2.31-1.32,3.46
			c-0.6,1.57-1.05,3.23-1.34,4.88c-0.35,2-0.28,4.05-0.2,6.06c0.08,2,0.12,4.01,0.39,5.99c0.21,1.58,1.88,2.64,3.4,2.37
			c0.76-0.14,1.45-0.57,1.89-1.21c0.11-0.22,0.23-0.44,0.35-0.66c0.17-0.48,0.22-0.97,0.14-1.47c-0.02-0.99,0.01-1.99,0.05-2.98
			c0.01-0.37,0.03-0.73,0.04-1.1c0.26,0.55,0.53,1.09,0.81,1.62c0.45,0.84,0.95,1.66,1.48,2.46c0.08,0.22,0.16,0.44,0.26,0.65
			c0.46,0.97,0.91,1.94,1.37,2.9c0.45,0.95,0.98,1.87,1.54,2.76c0.79,1.26,1.65,2.46,2.59,3.62c0.87,1.07,1.88,2.02,2.96,2.88
			c0.61,0.49,1.33,0.83,2.03,1.17c0.63,0.3,1.32,0.49,1.99,0.65c0.76,0.19,1.53,0.35,2.31,0.46c0.59,0.08,1.19,0.11,1.78,0.14
			c1.55,0.07,3.11-0.01,4.66-0.15c1.24-0.12,2.47-0.32,3.68-0.63c1.46-0.37,2.9-0.86,4.26-1.51c1.25-0.6,2.44-1.37,3.56-2.19
			c1.09-0.79,2.09-1.73,3-2.72c1.86-2.01,3.52-4.2,4.8-6.63c0.68-1.29,1.3-2.59,1.82-3.94c0.16-0.41,0.31-0.83,0.45-1.25
			c1.17-2.23,2.25-4.55,2.85-7c0.34-1.38,0.59-2.77,0.73-4.18c0.15-1.52,0.14-3.04,0.07-4.57c-0.06-1.26-0.2-2.52-0.42-3.76
			c-0.27-1.5-0.73-2.95-1.23-4.39C313.44,478.19,312.96,477.05,312.4,475.94z M307.34,489.08c0.06,2.6-0.19,5.2-0.72,7.74
			c-0.65,2.68-1.55,5.3-2.78,7.78c-1.04,1.89-2.3,3.65-3.71,5.28c-0.57,0.61-1.18,1.18-1.81,1.72c-0.24,0.17-0.48,0.33-0.72,0.49
			c-1.15,0.72-2.34,1.33-3.61,1.79c-0.82,0.24-1.65,0.4-2.51,0.47c-1.8,0.04-3.59-0.14-5.36-0.5c-1.96-0.48-3.85-1.17-5.65-2.07
			c-1.1-0.59-2.15-1.25-3.16-1.98c-0.95-1.59-1.74-3.26-2.55-4.92c-0.1-0.21-0.17-0.44-0.26-0.65c-0.2-0.5-0.39-1-0.59-1.5
			c-0.39-0.98-0.75-1.97-1.08-2.97c-1.03-3.35-1.67-6.83-1.89-10.33c-0.02-0.7,0-1.41,0.04-2.12c0.27-0.54,0.54-1.08,0.82-1.62
			c0.88-1.67,1.77-3.34,2.77-4.95c0.93-1.51,2-2.96,3.16-4.3c1.25-1.31,2.65-2.43,4.15-3.44c1.67-1.04,3.43-1.89,5.29-2.53
			c1.4-0.43,2.82-0.78,4.28-0.9c0.91,0,1.82,0.08,2.71,0.24c1.2,0.32,2.34,0.77,3.46,1.31c1.35,0.74,2.64,1.6,3.82,2.61
			c0.75,0.72,1.41,1.5,2.01,2.35c1.02,1.67,1.8,3.46,2.43,5.31C306.63,483.89,307.17,486.47,307.34,489.08z"/>
		<path class="st0" d="M186.15,358.02c2.18-1.63,4.36-3.24,6.52-4.9c2.07-1.59,4.14-3.17,6.2-4.76c1.43-1.09,2.85-2.19,4.28-3.28
			c0.31-0.23,0.6-0.49,0.9-0.73c0.9-0.73,1.79-1.46,2.69-2.19c1.8-1.47,3.6-2.94,5.4-4.4c1.29-1.05,2.52-2.18,3.77-3.27
			c2.68-2.33,5.32-4.71,7.88-7.18c0.86-0.83,1.74-1.65,2.49-2.59c0,0-0.01,0-0.01,0c0.51-0.75,0.51-1.77-0.11-2.5
			c-0.47-0.56-1.26-0.82-1.97-0.69c-0.34,0.06-0.66,0.21-0.93,0.46c-0.12,0.11-0.24,0.23-0.36,0.35c-0.18-0.05-0.38-0.06-0.58-0.03
			c-0.12,0.01-0.24,0.03-0.35,0.04c-1.27-0.91-2.54-1.82-3.81-2.74c-0.62-0.45-1.2-0.94-1.8-1.41c-0.92-0.72-1.82-1.45-2.69-2.22
			c-0.77-0.71-1.51-1.44-2.2-2.22c-0.69-0.77-1.3-1.61-1.87-2.47c-0.65-1.01-1.23-2.06-1.76-3.14c-0.53-1.08-0.95-2.2-1.33-3.34
			c-0.38-1.24-0.7-2.49-0.94-3.76c-0.23-1.24-0.36-2.5-0.43-3.75c-0.11-2.96,0.25-5.95,0.88-8.84c0.44-1.89,1.02-3.72,1.59-5.58
			c0.24-0.78,0.55-1.56,0.82-2.33c0.19-0.55,0.39-1.08,0.61-1.62c0.31-0.77,0.61-1.54,0.92-2.3c0.31-0.78,0.7-1.55,1.04-2.32
			c0.56-1.25,1.18-2.48,1.79-3.71c0.37-0.7,0.75-1.4,1.12-2.1c0.35-0.66,0.75-1.29,1.14-1.93c0.2-0.33,0.4-0.66,0.6-0.99
			c0.18-0.3,0.4-0.59,0.61-0.88c0.29-0.41,0.57-0.83,0.86-1.24c0.4-0.58,0.85-1.13,1.31-1.67c0.74-0.42,1.5-0.82,2.28-1.19
			c1.23-0.58,2.51-1.04,3.8-1.46c1.76-0.55,3.54-1.03,5.35-1.4c1.73-0.35,3.5-0.57,5.26-0.67c1.02-0.03,2.03-0.02,3.04,0.04
			c1.13,0.07,2.25,0.25,3.35,0.48c3.13,0.76,6.11,1.99,8.97,3.46c4.32,2.31,8.3,5.21,11.95,8.47c0.85,0.78,1.67,1.58,2.48,2.4
			c0.48,0.48,0.96,0.96,1.41,1.47c0.73,0.83,1.47,1.66,2.2,2.49c0.66,0.74,1.32,1.48,1.95,2.25c0.47,0.58,0.93,1.17,1.39,1.76
			c0.15,0.32,0.31,0.65,0.46,0.97c0.19,0.39,0.38,0.78,0.55,1.18c0.38,0.9,0.79,1.8,1.13,2.72c0.19,0.52,0.39,1.04,0.58,1.57
			c0.15,0.42,0.32,0.83,0.46,1.26c0.27,0.82,0.53,1.64,0.8,2.47c0.35,1.26,0.72,2.52,1.02,3.79c0.39,1.6,0.76,3.21,1.11,4.82
			c0.29,1.32,0.55,2.66,0.78,3.99c0.29,1.67,0.54,3.35,0.64,5.05c0.04,1.73-0.07,3.43-0.41,5.13c-0.24,1-0.54,1.98-0.84,2.97
			c-0.45,1.51-1.07,2.94-1.78,4.35c-0.33,0.61-0.69,1.2-1.04,1.8c-0.03,0.05-0.05,0.09-0.08,0.14c-0.08,0.09-0.15,0.18-0.23,0.26
			c-1.86,2.01-3.89,3.87-5.9,5.72c-1.88,1.74-3.74,3.49-5.6,5.25c-0.6,0.57-1.2,1.14-1.8,1.71c-0.88,0.84-1.75,1.71-2.65,2.53
			c-1.02,0.91-2.03,1.82-3.05,2.73c-1.83,1.64-3.82,3.11-5.87,4.46c-0.52,0.34-1.05,0.66-1.57,0.99c-1.94,0.94-3.87,1.88-5.81,2.82
			c-2.24,1.09-4.47,2.19-6.7,3.29c-1.1,0.54-2.19,1.11-3.28,1.66c-1.07,0.54-2.11,1.15-3.16,1.72c-1.04,0.57-2.04,1.19-3.05,1.79
			c-1.15,0.69-2.26,1.45-3.37,2.19c-2.29,1.52-4.32,3.38-6.2,5.37c-1.09,1.15-2.11,2.35-3.05,3.63c-1.05,1.43-1.9,2.99-2.71,4.57
			c-0.67,1.31-1.22,2.68-1.66,4.08c-0.27,0.85-0.45,1.72-0.64,2.59c-0.21,0.92-0.35,1.85-0.48,2.79c-0.32,2.41-0.24,4.84-0.09,7.26
			c0.07,1.1,0.11,2.2,0.25,3.29c0.1,0.8,0.2,1.59,0.3,2.39c0.05,0.43,0.08,0.88,0.17,1.3c0.29,1.39,0.57,2.79,0.85,4.18
			c0.09,0.46,0.19,0.92,0.28,1.38c0.09,0.43,0.22,0.86,0.34,1.29c0.37,1.43,0.7,2.87,1.15,4.27c0.41,1.28,0.83,2.56,1.24,3.84
			c0.31,0.96,0.67,1.89,1.02,2.84c0.37,1,0.72,2.02,1.12,3.01c0.57,1.4,1.13,2.8,1.7,4.21c0.37,0.9,0.78,1.78,1.18,2.67
			c0.46,1.01,0.88,2.04,1.37,3.03c0.66,1.32,1.32,2.64,1.98,3.95c0.42,0.85,0.88,1.68,1.33,2.51c0.52,0.97,1.03,1.95,1.58,2.91
			c0.74,1.3,1.49,2.59,2.23,3.89c0.52,0.91,1.07,1.81,1.62,2.71c0.54,0.89,1.07,1.78,1.62,2.66c0.74,1.18,1.47,2.38,2.25,3.54
			c0.69,1.03,1.39,2.05,2.09,3.08c0.57,0.84,1.18,1.65,1.77,2.47c0.72,1,1.45,1.98,2.2,2.96c0.19,0.43,0.38,0.86,0.56,1.3
			c0.54,1.28,1.08,2.55,1.59,3.83c0.48,1.19,0.92,2.42,1.47,3.59c0.21,0.44,0.41,0.87,0.67,1.28c0.36,0.57,0.69,1.05,1.25,1.44
			c0.43,0.3,0.86,0.53,1.36,0.7c0.88,0.3,1.87,0.28,2.79,0.19c0.18,0.1,0.38,0.16,0.6,0.2c-1,0.88-2.01,1.76-3.01,2.64
			c-0.61,0.54-0.7,1.48-0.17,2.1c0.52,0.61,1.5,0.71,2.11,0.17c1.85-1.63,3.7-3.24,5.51-4.92c1.33-1.25,2.67-2.49,4.01-3.74
			c2.04-1,4.07-2,6.11-3c2.34-1.14,4.7-2.28,7.01-3.49c1.26-0.66,2.54-1.3,3.78-1.99c1.44-0.81,2.87-1.62,4.31-2.43
			c2.29-1.29,4.56-2.65,6.84-3.96c2.31-1.32,4.64-2.6,6.95-3.91c1.18-0.67,2.35-1.34,3.52-2.02c0.56-0.32,1.12-0.63,1.68-0.95
			c0.65-0.37,1.33-0.69,1.97-1.07c0.35-0.21,0.7-0.43,0.99-0.71c0.33-0.31,0.76-0.86,0.89-1.31c0.03-0.09,0.05-0.18,0.08-0.28
			c0.16-0.43,0.19-0.86,0.11-1.31c-0.01-0.14-0.01-0.28-0.02-0.42c-0.09-0.36-0.2-0.71-0.32-1.06c-0.38-0.91-0.94-1.72-1.53-2.51
			c-0.61-0.82-1.33-1.58-2.05-2.32c-0.42-0.43-0.84-0.85-1.27-1.27c0.33,0.2,0.66,0.4,1,0.61c1.03,0.62,2.07,1.2,3.13,1.78
			c0.32,0.17,0.61,0.28,0.98,0.21c0.34-0.06,0.65-0.26,0.84-0.54c0.2-0.28,0.27-0.64,0.21-0.98c-0.06-0.31-0.25-0.69-0.54-0.84
			c-0.87-0.48-1.74-0.94-2.59-1.45c-0.52-0.31-1.03-0.63-1.55-0.94c0.66-0.47,1.31-0.95,1.93-1.47c0.66-0.54,0.72-1.57,0.18-2.21
			c-0.38-0.45-0.93-0.61-1.45-0.51c-0.27,0.05-0.53,0.16-0.76,0.34c-0.93,0.71-1.91,1.38-2.89,2.03c-0.06-0.04-0.13-0.08-0.19-0.12
			c-0.38-0.23-0.79-0.44-1.15-0.7c-1.25-0.9-2.49-1.79-3.74-2.69c-0.59-0.42-1.18-0.85-1.77-1.27c-0.36-0.26-0.71-0.55-1.06-0.83
			c-0.41-0.33-0.82-0.67-1.22-1.01c-0.85-0.95-1.71-1.9-2.57-2.85c-0.6-0.67-1.19-1.34-1.78-2.02c-0.8-0.93-1.62-1.84-2.4-2.78
			c-0.87-1.05-1.75-2.1-2.62-3.15c-0.6-0.72-1.17-1.46-1.75-2.2c-0.2-0.3-0.4-0.6-0.59-0.9c-1.04-1.62-2.02-3.28-2.89-5
			c-0.93-1.84-1.7-3.76-2.34-5.72c-0.75-2.39-1.34-4.82-1.87-7.26c-0.59-2.76-1.01-5.57-1.16-8.38c-0.06-2.09,0.13-4.15,0.56-6.19
			c0.5-2.05,1.23-4.04,2.18-5.93c0.76-1.41,1.63-2.75,2.53-4.08c0.91-1.36,1.89-2.65,2.98-3.88c1.91-2.07,3.99-3.94,6.18-5.71
			c0.52-0.42,1.03-0.87,1.57-1.27c0.68-0.5,1.36-1.01,2.04-1.51c2.27-1.69,4.56-3.35,6.85-5.02c0.42-0.31,0.68-0.89,0.72-1.39
			c0.05-0.55-0.13-1.12-0.49-1.54c-0.02-0.02-0.04-0.04-0.06-0.06c0.09-0.08,0.18-0.16,0.28-0.24c0.41-0.35,0.78-0.75,1.16-1.12
			c0.54-0.53,1.09-1.05,1.63-1.58c0.48-0.47,0.92-1,1.37-1.49c0.55-0.6,1.13-1.18,1.65-1.8c0.83-1,1.7-1.97,2.5-3
			c0.84-1.08,1.7-2.14,2.5-3.25c0.5-0.7,1.01-1.4,1.51-2.09c0.33-0.47,0.63-0.96,0.95-1.44c0.37-0.56,0.73-1.13,1.1-1.69
			c0.41-0.63,0.75-1.31,1.12-1.95c0.36-0.63,0.74-1.26,1.07-1.91c0.37-0.74,0.75-1.48,1.12-2.23c0.36-0.72,0.72-1.43,1.05-2.17
			c0.79-1.76,1.46-3.56,2.04-5.39c0.54-1.67,0.92-3.38,1.35-5.08c0.39-1.53,0.64-3.09,0.95-4.63c0.27-1.36,0.45-2.75,0.67-4.12
			c0.21-1.32,0.32-2.65,0.46-3.98c0.05-0.46,0.12-0.94,0.14-1.4c0.04-0.87,0.07-1.73,0.11-2.6c0.02-0.56,0.09-1.13,0.07-1.7
			c-0.02-0.83-0.04-1.65-0.06-2.48c-0.02-0.89-0.04-1.77-0.09-2.66c-0.11-2.03-0.36-4.03-0.76-6.03c-0.54-2.7-1.42-5.3-2.36-7.88
			c-0.26-0.71-0.52-1.43-0.79-2.14c-0.19-0.52-0.43-1.02-0.65-1.53c-0.52-1.22-1.03-2.44-1.61-3.63c-0.59-1.23-1.15-2.45-1.81-3.64
			c-0.45-0.81-0.91-1.62-1.36-2.44c-0.3-0.54-0.64-1.05-0.98-1.57c-0.5-0.76-1.01-1.52-1.51-2.28c-0.27-0.41-0.53-0.83-0.83-1.23
			c-1.78-2.43-3.57-4.85-5.37-7.27c-1.48-1.98-2.94-3.98-4.51-5.88c-0.58-0.7-1.16-1.4-1.74-2.1c-0.77-0.93-1.6-1.82-2.45-2.68
			c-0.71-0.73-1.46-1.42-2.22-2.09c-0.58-0.51-1.15-1.04-1.77-1.5c-0.66-0.5-1.33-1.01-1.99-1.51c-0.39-0.3-0.77-0.61-1.17-0.88
			c-0.76-0.52-1.53-1.04-2.29-1.56c-1.12-0.76-2.3-1.43-3.47-2.12c-0.66-0.39-1.32-0.79-2-1.14c-0.6-0.3-1.2-0.6-1.8-0.91
			c-0.74-0.37-1.49-0.75-2.23-1.12c-0.41-0.21-0.84-0.38-1.27-0.57c-1.26-0.54-2.51-1.1-3.78-1.61c-1.32-0.52-2.64-1.05-3.98-1.53
			c-0.75-0.27-1.5-0.54-2.25-0.81c-0.57-0.21-1.17-0.37-1.75-0.55c-0.71-0.22-1.42-0.45-2.13-0.67c-0.63-0.2-1.29-0.34-1.93-0.5
			c-0.63-0.17-1.27-0.33-1.91-0.49c-0.88-0.23-1.79-0.39-2.68-0.58c-1.38-0.3-2.76-0.57-4.15-0.83c-1.43-0.27-2.86-0.5-4.29-0.74
			c-1.25-0.2-2.51-0.32-3.76-0.46c-0.66-0.08-1.34-0.07-2.01-0.11c-0.56-0.03-1.13-0.08-1.69-0.08c-1.35,0-2.7-0.04-4.05,0
			c-2,0.07-4,0.13-6,0.26c-1.24,0.08-2.49,0.24-3.72,0.46c-2.76,0.49-5.47,1.3-8.05,2.32c-2.18,0.86-4.24,1.94-6.31,3.04
			c-0.72,0.38-1.45,0.77-2.17,1.15c-0.4,0.21-0.79,0.47-1.17,0.7c-1.32,0.81-2.68,1.58-3.95,2.48c-0.74,0.52-1.47,1.04-2.21,1.56
			c-0.4,0.28-0.81,0.56-1.19,0.86c-1.06,0.86-2.17,1.68-3.19,2.59c-1.04,0.93-2.1,1.84-3.1,2.83c-0.59,0.59-1.18,1.18-1.77,1.76
			c-0.52,0.52-1,1.1-1.49,1.65c-0.53,0.59-1.06,1.18-1.59,1.77c-0.41,0.46-0.77,0.96-1.15,1.43c-0.47,0.58-0.93,1.17-1.4,1.75
			c-0.43,0.54-0.81,1.12-1.21,1.68c-0.35,0.49-0.73,0.97-1.06,1.48c-0.46,0.69-0.91,1.39-1.37,2.08c-0.77,1.18-1.48,2.39-2.2,3.6
			c-0.69,1.16-1.31,2.36-1.95,3.56c-0.69,1.29-1.34,2.59-1.99,3.9c-0.63,1.28-1.23,2.58-1.83,3.88c-0.54,1.18-1.02,2.4-1.52,3.6
			c-0.23,0.55-0.42,1.12-0.63,1.68c-0.22,0.58-0.46,1.15-0.65,1.74c-0.42,1.26-0.86,2.51-1.24,3.78c-0.39,1.32-0.79,2.63-1.16,3.96
			c-0.41,1.46-0.81,2.93-1.19,4.39c-0.37,1.4-0.7,2.8-1.03,4.21c-0.34,1.41-0.6,2.83-0.88,4.25c-0.12,0.59-0.19,1.19-0.28,1.79
			c-0.09,0.6-0.2,1.2-0.26,1.8c-0.09,0.84-0.18,1.68-0.27,2.51c-0.07,0.63-0.08,1.26-0.12,1.89c-0.03,0.54-0.08,1.09-0.09,1.63
			c-0.01,0.91-0.02,1.81-0.04,2.72c-0.01,0.5,0.01,1,0.02,1.5c0.02,0.79,0.01,1.58,0.07,2.37c0.09,1.37,0.17,2.74,0.31,4.11
			c0.28,2.71,0.61,5.41,1.13,8.09c0.13,0.7,0.27,1.4,0.4,2.1c0.14,0.76,0.36,1.52,0.54,2.28c0.3,1.28,0.67,2.53,1.02,3.8
			c0.2,0.71,0.46,1.41,0.69,2.11c0.18,0.56,0.37,1.12,0.57,1.68c0.5,1.4,1.02,2.8,1.55,4.2c0.97,2.56,2.05,5.08,3.14,7.59
			c1.05,2.43,2.24,4.79,3.43,7.15c0.59,1.16,1.19,2.3,1.81,3.44c0.67,1.24,1.43,2.43,2.19,3.61c1.22,1.9,2.49,3.77,3.86,5.56
			c-0.66,0.69-0.69,1.84-0.06,2.58c0.68,0.8,1.87,0.88,2.68,0.25c0.74,0.34,1.62,0.27,2.28-0.3c0.62-0.52,0.87-1.39,0.69-2.16
			c0.31-0.26,0.63-0.52,0.94-0.78C185.67,358.33,185.91,358.19,186.15,358.02z M210.16,270.42c-0.5,1.07-1,2.14-1.46,3.24
			c-0.47,1.11-0.93,2.21-1.36,3.33c-0.24,0.63-0.48,1.26-0.71,1.89c-0.18,0.47-0.32,0.97-0.48,1.45c-0.19,0.59-0.39,1.18-0.59,1.76
			c-0.17,0.52-0.31,1.07-0.46,1.6c-0.17,0.59-0.34,1.18-0.51,1.76c-0.43,1.49-0.74,3.03-1,4.55c-0.27,1.6-0.44,3.23-0.52,4.85
			c-0.08,1.65,0.03,3.32,0.22,4.96c0.02,0.19,0.05,0.38,0.08,0.57c-0.19-0.72-0.36-1.44-0.51-2.17c-0.31-1.51-0.48-3.06-0.57-4.6
			c-0.11-3.32,0.3-6.63,1-9.87c0.81-3.42,2.01-6.71,3.6-9.83c0.57-1.07,1.19-2.12,1.86-3.14c0.75-1.14,1.61-2.22,2.51-3.25
			c0.23-0.25,0.46-0.49,0.7-0.73c-0.07,0.13-0.14,0.26-0.21,0.4C211.21,268.26,210.67,269.33,210.16,270.42z M259.62,262.32
			c-3.16-2.29-6.54-4.26-10.09-5.85c-3.49-1.57-7.2-2.72-11.04-2.98c-1.85-0.13-3.73-0.02-5.57,0.17c-1.33,0.14-2.66,0.37-3.97,0.65
			c0.63-0.25,1.28-0.48,1.93-0.7c0.92-0.29,1.86-0.52,2.79-0.78c1.9-0.52,3.88-0.82,5.85-0.93c1.92-0.05,3.88,0.04,5.77,0.42
			c1.82,0.45,3.59,1.1,5.27,1.94c2.32,1.27,4.43,2.88,6.41,4.64c0.55,0.51,1.09,1.02,1.61,1.56c0.53,0.56,1.07,1.12,1.6,1.67
			c0.53,0.55,1.01,1.14,1.5,1.73C260.99,263.34,260.31,262.83,259.62,262.32z M223.66,424.94c-0.17-0.33-0.31-0.68-0.46-1.02
			c-0.37-0.81-0.73-1.63-1.1-2.44c-0.23-0.51-0.49-1.02-0.69-1.54c-0.26-0.64-0.52-1.27-0.77-1.91c-0.52-1.27-1.05-2.54-1.53-3.83
			c-0.35-0.94-0.69-1.87-1.04-2.81c-0.18-0.48-0.38-0.96-0.53-1.45c-0.42-1.3-0.84-2.59-1.26-3.89c-0.42-1.59-0.83-3.19-1.25-4.78
			c-0.14-0.55-0.24-1.12-0.35-1.68c-0.23-1.1-0.45-2.21-0.68-3.31c-0.31-1.54-0.45-3.11-0.65-4.67c-0.08-0.58-0.1-1.17-0.14-1.76
			c-0.05-0.73-0.09-1.47-0.14-2.2c-0.03-1.27-0.02-2.53,0.07-3.8c0.1-1.36,0.32-2.72,0.61-4.05c0.25-1.04,0.57-2.05,0.95-3.05
			c0.35-0.92,0.76-1.81,1.2-2.68c0.16-0.29,0.32-0.58,0.49-0.87c-0.11,0.48-0.2,0.96-0.29,1.44c-0.33,1.78-0.47,3.61-0.55,5.42
			c-0.05,1.13-0.05,2.26-0.03,3.4c0.01,0.8-0.01,1.62,0.06,2.42c0.07,0.85,0.13,1.7,0.2,2.55c0.11,1.41,0.33,2.82,0.51,4.23
			c0.17,1.33,0.4,2.64,0.61,3.96c0.4,2.55,0.91,5.08,1.53,7.58c0.31,1.24,0.6,2.49,0.94,3.73c0.42,1.5,0.85,3.01,1.27,4.51
			c0.78,2.77,1.62,5.52,2.44,8.27c0.33,1.1,0.67,2.19,1.02,3.28c0.29,0.91,0.58,1.81,0.87,2.71c0.21,0.65,0.4,1.32,0.63,1.97
			c0.06,0.15,0.11,0.31,0.17,0.46c-0.09-0.18-0.19-0.37-0.28-0.55C224.87,427.36,224.27,426.15,223.66,424.94z M290.98,434.73
			c0.21,0.21,0.43,0.41,0.64,0.62c-0.11,0.07-0.21,0.14-0.32,0.21c-0.14,0.1-0.28,0.19-0.42,0.29c-0.26,0.18-0.53,0.36-0.79,0.55
			c-0.65,0.46-1.31,0.92-1.96,1.38c-1.15,0.8-2.32,1.57-3.49,2.34c-0.52,0.32-1.04,0.64-1.56,0.96c0.19-0.17,0.38-0.33,0.58-0.5
			c0.83-0.73,1.66-1.47,2.5-2.2c0.36-0.31,0.72-0.59,1.1-0.88C288.49,436.57,289.71,435.62,290.98,434.73z M294.77,439.85
			c-0.59,0.25-1.16,0.53-1.73,0.82c-1.25,0.63-2.47,1.3-3.7,1.97c-2.29,1.24-4.58,2.49-6.85,3.79c-2.32,1.33-4.62,2.7-6.95,4.02
			c-1.44,0.81-2.89,1.63-4.33,2.45c-0.2,0.11-0.4,0.22-0.6,0.33c0.96-0.96,1.91-1.91,2.87-2.87c0.41-0.41,0.83-0.82,1.24-1.23
			c0.04-0.02,0.07-0.04,0.11-0.06c0.92-0.53,1.84-1.05,2.77-1.57c0.89-0.51,1.78-1.02,2.68-1.52c0.41-0.23,0.82-0.45,1.22-0.69
			c1.44-0.87,2.89-1.74,4.33-2.61c0.58-0.35,1.14-0.72,1.71-1.09c0.64-0.41,1.29-0.82,1.92-1.24c0.67-0.45,1.34-0.89,2.01-1.35
			c0.65-0.44,1.29-0.9,1.94-1.34c0.11-0.06,0.22-0.12,0.34-0.18c0.62,0.67,1.21,1.37,1.75,2.11
			C295.24,439.66,295,439.75,294.77,439.85z M174.16,343.7c-1.15-2.17-2.26-4.35-3.28-6.58c-1.09-2.39-2.16-4.8-3.12-7.24
			c-0.52-1.32-1.03-2.65-1.53-3.98c-0.4-1.06-0.75-2.13-1.11-3.2c-0.23-0.8-0.47-1.61-0.7-2.41c-0.23-0.79-0.4-1.59-0.6-2.39
			c-0.38-1.58-0.7-3.17-0.97-4.77c-0.28-1.71-0.55-3.42-0.73-5.14c-0.09-0.89-0.22-1.78-0.28-2.67c-0.06-0.87-0.11-1.74-0.17-2.61
			c-0.03-1.48-0.06-2.95-0.03-4.43c0.01-0.66,0.01-1.32,0.05-1.98c0.06-0.92,0.12-1.84,0.18-2.76c0.05-0.85,0.19-1.7,0.29-2.54
			c0.09-0.74,0.22-1.48,0.34-2.22c0.12-0.71,0.23-1.42,0.38-2.13c0.17-0.8,0.34-1.6,0.52-2.4c0.29-1.13,0.58-2.26,0.86-3.39
			c0.27-1.06,0.6-2.11,0.9-3.16c0.3-1.04,0.61-2.09,0.95-3.12c0.36-1.12,0.69-2.26,1.09-3.37c0.42-1.19,0.85-2.37,1.27-3.56
			c0.15-0.41,0.33-0.82,0.5-1.22c0.27-0.67,0.55-1.34,0.82-2.01c0.43-1.05,0.93-2.07,1.4-3.11c0.44-0.98,0.96-1.94,1.44-2.9
			c0.85-1.59,1.69-3.18,2.57-4.74c0.45-0.79,0.87-1.6,1.35-2.36c0.64-1.02,1.29-2.03,1.93-3.05c0.52-0.82,1.11-1.59,1.66-2.38
			c0.5-0.71,1.02-1.41,1.55-2.1c0.56-0.73,1.1-1.47,1.69-2.17c0.72-0.85,1.43-1.69,2.15-2.54c0.47-0.5,0.95-1,1.42-1.5
			c0.46-0.48,0.9-0.97,1.38-1.42c0.72-0.68,1.45-1.35,2.17-2.03c0.62-0.58,1.3-1.09,1.94-1.64c1.25-1.05,2.55-2.02,3.84-3.01
			c0.51-0.39,1.07-0.74,1.6-1.11c0.6-0.4,1.2-0.81,1.8-1.22c1.51-0.9,3-1.84,4.57-2.64c1.2-0.61,2.4-1.23,3.6-1.84
			c1.87-0.96,3.83-1.79,5.82-2.47c1.53-0.46,3.09-0.84,4.66-1.14c1.7-0.32,3.4-0.47,5.12-0.56c4.15-0.1,8.32-0.19,12.45,0.31
			c1.01,0.12,2.03,0.24,3.03,0.41c1.07,0.17,2.14,0.34,3.2,0.54c1.06,0.2,2.13,0.37,3.19,0.6c1.03,0.21,2.06,0.43,3.09,0.65
			c0.98,0.25,1.95,0.49,2.93,0.74c0.93,0.23,1.84,0.53,2.75,0.81c1.85,0.57,3.69,1.17,5.51,1.86c1.09,0.42,2.19,0.83,3.28,1.24
			c1.02,0.39,2.02,0.84,3.03,1.26c1.68,0.7,3.31,1.52,4.94,2.32c0.98,0.56,1.97,1.12,2.95,1.68c0.84,0.48,1.64,1.01,2.46,1.54
			c0.85,0.56,1.7,1.11,2.52,1.72c0.61,0.45,1.23,0.91,1.84,1.36c0.77,0.57,1.5,1.19,2.22,1.83c1.41,1.31,2.72,2.72,3.95,4.21
			c0.7,0.84,1.43,1.66,2.09,2.53c1.3,1.72,2.61,3.44,3.89,5.16c1.45,1.94,2.88,3.88,4.31,5.83c0.51,0.7,1.02,1.4,1.51,2.13
			c0.57,0.86,1.14,1.72,1.72,2.57c0.34,0.61,0.68,1.22,1.02,1.82c0.26,0.46,0.52,0.93,0.78,1.39c0.1,0.18,0.21,0.35,0.3,0.53
			c0.34,0.71,0.68,1.41,1.02,2.12c0.28,0.59,0.59,1.16,0.85,1.76c0.33,0.76,0.66,1.52,0.99,2.28c0.25,0.58,0.53,1.15,0.75,1.74
			c0.58,1.55,1.2,3.09,1.72,4.66c0.5,1.62,0.93,3.26,1.26,4.93c0.35,1.76,0.52,3.53,0.64,5.32c0.06,1.48,0.13,2.97,0.08,4.45
			c-0.04,1.1-0.08,2.2-0.12,3.3c-0.01,0.2-0.04,0.41-0.06,0.61c-0.07,0.66-0.13,1.33-0.2,1.99c-0.07,0.73-0.11,1.47-0.22,2.19
			c-0.18,1.19-0.36,2.37-0.54,3.56c-0.24,1.58-0.57,3.15-0.88,4.72c-0.2,0.81-0.4,1.62-0.6,2.43c-0.38,1.53-0.84,3.03-1.36,4.52
			c-0.59,1.66-1.27,3.29-2.06,4.87c-0.41,0.82-0.82,1.65-1.23,2.47c-0.34,0.59-0.68,1.18-1.02,1.78c-0.3,0.53-0.59,1.07-0.93,1.58
			c-0.53,0.82-1.07,1.64-1.6,2.45c-0.35,0.53-0.74,1.04-1.11,1.56c-0.4,0.55-0.78,1.11-1.2,1.64c-0.6,0.77-1.21,1.55-1.81,2.32
			c-0.84,1.07-1.74,2.1-2.61,3.15c-0.34,0.37-0.68,0.74-1.03,1.11c-0.42,0.45-0.82,0.94-1.27,1.37c-0.58,0.56-1.16,1.13-1.75,1.69
			c-0.39,0.37-0.76,0.76-1.17,1.11c-1.07,0.92-2.13,1.86-3.25,2.72c-1.14,0.87-2.27,1.72-3.44,2.54c-2.37,1.65-4.78,3.24-7.17,4.87
			c-1.1,0.75-2.16,1.56-3.18,2.4c-1.61,1.32-3.06,2.78-4.43,4.34c-2.64,3-4.67,6.52-6.07,10.25c-1.37,3.66-1.95,7.57-2,11.46
			c-0.06,4.03,0.53,8.03,1.59,11.91c1.06,3.9,2.68,7.59,4.71,11.08c1.21,2.07,2.58,4.02,3.98,5.95c1.54,2.13,3.16,4.2,4.84,6.22
			c0.85,1.02,1.69,2.04,2.55,3.05c0.98,1.13,1.93,2.29,2.93,3.4c0.63,0.7,1.27,1.41,1.9,2.11c0.54,0.6,1.07,1.22,1.63,1.8
			c1.27,1.32,2.51,2.68,3.82,3.97c1.06,1.05,2.13,2.1,3.19,3.14c-1.37,1.06-2.74,2.11-4.12,3.17c-0.14,0.11-0.28,0.25-0.41,0.37
			c-0.38,0.34-0.76,0.68-1.13,1.02c-0.91,0.82-1.83,1.64-2.74,2.46c-0.39,0.35-0.81,0.69-1.18,1.06c-0.51,0.51-1.02,1.02-1.52,1.52
			c-1.62,1.62-3.23,3.23-4.85,4.85c-0.21,0.21-0.42,0.42-0.62,0.63c-0.13,0.07-0.26,0.13-0.38,0.2c-0.79,0.42-1.59,0.84-2.38,1.26
			c-1.99,1.05-3.99,2.11-5.98,3.16c-2.12,1.12-4.25,2.19-6.39,3.28c-0.65,0.33-0.95,1.12-0.63,1.79c0.31,0.65,1.14,0.96,1.79,0.63
			c2.08-1.05,4.16-2.09,6.22-3.18c0.45-0.24,0.91-0.48,1.37-0.72c-0.07,0.07-0.13,0.13-0.2,0.2c-1.13,1.13-2.25,2.27-3.38,3.4
			c-0.02,0.02-0.05,0.04-0.07,0.07c-1.19,0.58-2.38,1.15-3.57,1.73c-1.56,0.76-3.11,1.53-4.68,2.28c-0.76,0.37-1.52,0.74-2.29,1.08
			c-1.08,0.47-2.15,0.97-3.25,1.37c-0.49-0.77-0.98-1.54-1.51-2.3c-0.34-0.49-0.68-0.97-1.03-1.45c-0.34-0.84-0.68-1.68-1.04-2.51
			c-1.15-2.65-2.35-5.29-3.56-7.91c-2.27-4.94-4.63-9.84-6.77-14.84c-0.44-1.04-0.93-2.07-1.33-3.13c-0.6-1.59-1.19-3.17-1.79-4.76
			c-0.83-2.21-1.52-4.46-2.26-6.7c-0.81-2.6-1.63-5.19-2.43-7.79c-0.36-1.17-0.71-2.35-1.06-3.52c-0.37-1.23-0.75-2.46-1.07-3.7
			c-0.35-1.33-0.75-2.66-1.03-4.01c-0.18-0.83-0.35-1.66-0.53-2.49c-0.13-0.6-0.28-1.2-0.38-1.8c-0.26-1.52-0.52-3.03-0.77-4.55
			c-0.23-1.37-0.39-2.76-0.58-4.14c-0.15-1.11-0.22-2.24-0.32-3.36c-0.02-0.88-0.05-1.75-0.07-2.63c-0.04-1.44,0.06-2.9,0.17-4.33
			c0.11-1.34,0.28-2.67,0.55-3.99c0.46-1.83,1.06-3.62,1.88-5.32c0.28-0.51,0.58-1.01,0.91-1.49c0.4-0.6,0.87-1.15,1.34-1.69
			c0.75-0.79,1.53-1.53,2.36-2.24c0.72-0.61,1.49-1.16,2.28-1.68c1.11-0.67,2.21-1.33,3.34-1.97c1.27-0.71,2.54-1.41,3.81-2.11
			c2.45-1.34,4.9-2.68,7.34-4.04c1.08-0.6,2.17-1.21,3.23-1.86c1.29-0.79,2.6-1.56,3.87-2.38c0.5-0.33,1-0.66,1.5-0.99
			c0.65-0.33,1.31-0.65,1.96-0.97c0.93-0.46,1.84-0.98,2.75-1.49c2.87-1.64,5.59-3.54,8.09-5.7c1.22-1.05,2.36-2.2,3.51-3.32
			c0.44-0.43,0.87-0.84,1.28-1.3c0.43-0.48,0.86-0.96,1.29-1.44c0.34-0.38,0.7-0.74,1.02-1.14c0.44-0.56,0.89-1.11,1.33-1.67
			c0.75-0.94,1.45-1.92,2.16-2.89c0.68-0.92,1.29-1.9,1.93-2.85c0.26-0.39,0.48-0.8,0.72-1.2c0.05-0.08,0.09-0.15,0.14-0.23
			c0.21-0.25,0.41-0.51,0.61-0.76c1.09-1.39,1.99-2.9,2.81-4.46c0.95-1.81,1.86-3.62,2.43-5.59c0.5-1.75,0.75-3.54,0.85-5.35
			c0.11-2.09,0-4.19-0.29-6.26c-0.26-1.85-0.69-3.68-1.17-5.48c-0.53-1.99-1.18-3.95-1.89-5.88c-1.23-3.32-3.04-6.4-5.04-9.32
			c-0.16-0.37-0.32-0.73-0.48-1.1c-0.21-0.49-0.47-0.96-0.71-1.44c-0.23-0.45-0.43-0.91-0.68-1.35c-0.38-0.68-0.76-1.35-1.14-2.03
			c-0.54-0.97-1.15-1.9-1.73-2.85c-0.35-0.57-0.73-1.12-1.1-1.68c-0.31-0.47-0.61-0.94-0.92-1.4c-0.64-0.93-1.26-1.87-1.93-2.78
			c-0.72-0.99-1.42-1.98-2.18-2.93c-0.42-0.53-0.84-1.05-1.26-1.58c-0.38-0.47-0.82-0.91-1.22-1.37c-0.29-0.33-0.58-0.67-0.89-0.98
			c-0.57-0.56-1.13-1.12-1.7-1.68c-1.85-1.83-3.88-3.5-6.02-4.98c-1.25-0.86-2.59-1.6-3.96-2.26c-1.51-0.73-3.14-1.23-4.76-1.64
			c-0.8-0.2-1.6-0.36-2.42-0.46c-0.79-0.1-1.6-0.12-2.39-0.14c-1.73-0.05-3.46,0.06-5.17,0.32c-0.31,0.05-0.63,0.1-0.94,0.15
			c-0.99,0.18-1.98,0.4-2.93,0.69c-0.76,0.23-1.52,0.46-2.28,0.69c-2.66,0.8-5.18,1.95-7.51,3.47c-1.86,1.21-3.61,2.61-5.19,4.17
			c-0.75,0.39-1.49,0.82-2.22,1.26c-1.45,0.9-2.81,1.91-4.11,3c-1.32,1.12-2.51,2.36-3.64,3.66c-2.25,2.6-3.95,5.63-5.37,8.74
			c-1.44,3.17-2.41,6.53-3.07,9.94c-0.33,1.69-0.54,3.41-0.67,5.13c-0.15,1.91-0.08,3.83,0.09,5.74c0.31,3.43,1.28,6.79,2.51,9.99
			c1.27,3.31,3.01,6.41,5.12,9.25c0.99,1.33,2.11,2.57,3.26,3.76c1.26,1.31,2.62,2.53,4.04,3.67c1.22,0.98,2.55,1.81,3.98,2.43
			c0.23,0.1,0.48,0.18,0.72,0.26c-0.48,0.3-0.9,0.75-1.3,1.12c-0.3,0.28-0.61,0.55-0.91,0.82c-0.66,0.59-1.32,1.19-1.98,1.77
			c-1.46,1.29-2.92,2.58-4.39,3.86c-3.08,2.69-6.2,5.33-9.31,7.99c-2.46,2.1-4.95,4.17-7.44,6.24c-3.57,2.98-7.14,5.96-10.72,8.92
			c-0.24,0.2-0.48,0.4-0.72,0.6c-0.46-0.57-0.9-1.15-1.34-1.74c-0.99-1.33-1.91-2.72-2.83-4.09c-0.65-1.02-1.29-2.06-1.89-3.11
			C175.41,346.03,174.78,344.87,174.16,343.7z"/>
	</g>
	<g>
		<path class="st0" d="M651.58,480.64c2.29-1.32,4.49-2.77,6.6-4.37c1.45-1.11,2.84-2.31,4.18-3.55c1.06-0.98,2.11-2,3.11-3.06
			c1.06-1.12,2.11-2.25,3.17-3.37c0.29-0.31,0.55-0.64,0.82-0.96c0.63-0.73,1.25-1.47,1.87-2.2c0.89-1.04,1.69-2.14,2.5-3.24
			c0.51-0.7,1.03-1.4,1.55-2.1c0.67-0.91,1.28-1.85,1.88-2.8c2.08-3.28,3.75-6.8,5.07-10.45c1.32-3.66,2.12-7.46,2.59-11.32
			c0.26-2.16,0.36-4.32,0.47-6.49c0.12-2.59-0.03-5.19-0.21-7.77c-0.37-5.44-0.92-10.87-1.99-16.22c-0.27-1.33-0.55-2.65-0.86-3.98
			c-0.13-0.55-0.23-1.12-0.39-1.66c-0.22-0.77-0.44-1.54-0.66-2.31c-0.13-0.45-0.24-0.91-0.4-1.35c-0.3-0.84-0.59-1.68-0.89-2.52
			c-0.53-1.49-1.13-2.94-1.74-4.39c-0.51-1.22-1.1-2.4-1.68-3.59c-0.21-0.43-0.43-0.86-0.66-1.28c-0.4-0.74-0.81-1.47-1.22-2.2
			c-0.63-1.14-1.38-2.23-2.08-3.33c-0.8-1.25-1.69-2.43-2.57-3.62c-0.43-0.58-0.85-1.16-1.28-1.74c-0.32-0.43-0.68-0.83-1.02-1.24
			c-0.82-0.99-1.62-1.98-2.47-2.94c-0.87-0.97-1.71-1.96-2.61-2.9c-1.06-1.11-2.12-2.22-3.18-3.34c-1.86-1.96-3.82-3.82-5.78-5.69
			c-0.29-0.27-0.59-0.53-0.89-0.78c-0.73-0.63-1.46-1.25-2.2-1.88c-1.15-0.98-2.37-1.89-3.57-2.81c-2.11-1.63-4.32-3.14-6.51-4.66
			c-1.08-0.74-2.18-1.45-3.27-2.18c-0.44-0.3-0.91-0.57-1.36-0.85c-0.57-0.36-1.14-0.73-1.72-1.08c-4.69-2.77-9.45-5.43-14.43-7.65
			c-2.44-1.09-4.89-2.15-7.39-3.07c-1.34-0.49-2.68-0.98-4.03-1.43c-0.5-0.17-1.01-0.34-1.52-0.49c-0.7-0.21-1.4-0.45-2.12-0.62
			c-2.67-0.64-5.36-1.24-8.1-1.55c-2.72-0.32-5.43-0.52-8.16-0.67c-2.47-0.14-4.97-0.23-7.44-0.12c-1.56,0.07-3.11,0.17-4.66,0.34
			c-1.36,0.15-2.7,0.4-4.05,0.65c-5.01,0.94-9.94,2.38-14.7,4.24c-1.33,0.39-2.65,0.83-3.95,1.3c-1.65,0.59-3.28,1.24-4.88,1.96
			c-1.87,0.84-3.68,1.81-5.46,2.85c-3.28,1.92-6.28,4.24-9,6.89c-0.71,0.69-1.39,1.41-2.05,2.16c-0.79,0.68-1.55,1.4-2.32,2.12
			c-1.54,1.43-2.98,2.99-4.23,4.67c-1.1,1.47-1.89,3.18-2.57,4.88c-0.72,1.79-1.1,3.69-1.37,5.59c-0.15,1.04-0.2,2.09-0.23,3.14
			c-0.02,0.67-0.03,1.32,0,1.99c0.04,1.13,0.12,2.24,0.25,3.36c0.23,1.92,0.69,3.82,1.31,5.65c0.6,1.77,1.33,3.51,2.19,5.17
			c0.9,1.74,2.04,3.36,3.29,4.87c1.16,1.41,2.51,2.65,3.92,3.79c1.62,1.31,3.31,2.5,5.13,3.53c1.62,0.91,3.36,1.65,5.14,2.22
			c1.85,0.6,3.77,0.94,5.68,1.25c1.22,0.2,2.46,0.34,3.69,0.44c1.45,0.12,2.9,0.21,4.35,0.29c1.22,0.06,2.44,0.08,3.66,0.11
			c2.75,0.07,5.51,0.03,8.26-0.02c1.35-0.02,2.7-0.09,4.05-0.15c0.57-0.03,1.13-0.08,1.69-0.13c0.71-0.06,1.42-0.1,2.12-0.19
			c0.78-0.1,1.57-0.2,2.35-0.3c0.61-0.08,1.22-0.23,1.83-0.34c1.36-0.26,2.71-0.56,4.06-0.88c5.1-1.2,10.05-2.94,14.97-4.73
			c1.04-0.38,2.09-0.74,3.15-1.1c0.63-0.22,1.28-0.39,1.92-0.58c1.14-0.34,2.3-0.58,3.48-0.72c2.74-0.23,5.52-0.21,8.26-0.03
			c1.7,0.11,3.39,0.19,5.07,0.44c1.38,0.26,2.75,0.63,4.06,1.16c0.61,0.25,1.22,0.49,1.83,0.74c1.58,0.74,3.06,1.61,4.44,2.68
			c1.38,1.17,2.64,2.49,3.83,3.86c0.44,0.5,0.9,1,1.31,1.52c0.48,0.61,0.96,1.22,1.44,1.82c0.47,0.65,0.95,1.3,1.38,1.98
			c0.68,1.05,1.34,2.1,1.97,3.18c1.3,2.21,2.54,4.48,3.5,6.86c0.31,0.87,0.57,1.74,0.78,2.64c0.01,0.06,0.03,0.13,0.04,0.19
			c0.04,0.71,0.06,1.42,0.07,2.13c0,1.23-0.11,2.46-0.29,3.67c-0.48,2.57-1.35,5.03-2.39,7.43c-1.06,2.32-2.22,4.58-3.53,6.77
			c-0.71,1.19-1.47,2.35-2.27,3.48c-0.35,0.39-0.71,0.78-1.08,1.15c-1.32,1.34-2.64,2.68-4.03,3.96c-1.49,1.37-2.99,2.72-4.52,4.04
			c-1.3,1.12-2.65,2.16-4.01,3.19c-0.66,0.46-1.33,0.91-1.99,1.37c-0.4,0.27-0.83,0.5-1.24,0.75c-0.41,0.25-0.83,0.5-1.24,0.75
			c-0.33,0.2-0.71,0.37-1.06,0.55c-0.48,0.25-0.97,0.5-1.45,0.75c-0.36,0.19-0.75,0.33-1.12,0.5c-0.43,0.19-0.85,0.38-1.28,0.56
			c-0.48,0.18-0.95,0.35-1.43,0.53c-0.52,0.19-1.04,0.35-1.57,0.51c-1.21,0.38-2.44,0.74-3.69,1.01c-0.73,0.16-1.46,0.31-2.19,0.47
			c-0.63,0.13-1.27,0.21-1.9,0.32c-1.12,0.18-2.25,0.3-3.37,0.42c-0.8,0.05-1.61,0.09-2.41,0.14c-0.81,0.05-1.63,0.03-2.45,0.03
			c-1.44,0.01-2.86-0.14-4.29-0.31c-0.67-0.12-1.36-0.23-2.02-0.4c-0.88-0.23-1.75-0.46-2.63-0.69c-1.64-0.43-3.25-0.96-4.86-1.47
			c-3.1-0.98-6.1-2.2-9.09-3.49c-0.77-0.35-1.54-0.7-2.31-1.06c-0.5-0.28-0.99-0.56-1.48-0.84c-1.19-0.69-2.4-1.35-3.56-2.07
			c-1.41-0.87-2.82-1.74-4.22-2.61c-0.93-0.57-1.83-1.19-2.73-1.79c-1.02-0.68-2.06-1.33-3.06-2.05c-1.34-0.97-2.67-1.94-4.01-2.9
			c-1.87-1.35-3.69-2.77-5.51-4.18c-2.33-1.8-4.66-3.61-6.98-5.42c-2.1-1.63-4.2-3.25-6.3-4.88c-1.11-0.86-2.27-1.66-3.41-2.49
			c-2.12-1.55-4.32-2.97-6.6-4.26c-3.27-1.84-6.75-3.36-10.32-4.52c-1.7-0.55-3.44-0.98-5.18-1.36c-1.78-0.38-3.58-0.68-5.39-0.84
			c-0.62-0.21-1.25-0.4-1.88-0.57c-1-0.27-2.03-0.44-3.06-0.6c-2.9-0.47-5.81-0.26-8.71,0.08c-0.68,0.08-1.36,0.16-2.05,0.24
			c-1.88,0.22-3.73,0.67-5.55,1.19c-0.64,0.18-1.28,0.41-1.91,0.62c-0.64,0.21-1.28,0.42-1.91,0.67c-0.77,0.3-1.53,0.6-2.3,0.91
			c-1.35,0.54-2.66,1.2-3.93,1.92c-1.76,0.99-3.39,2.17-5.04,3.33c-1.18,0.83-2.28,1.77-3.4,2.67c-0.43,0.35-0.83,0.75-1.24,1.13
			c-0.43,0.39-0.87,0.77-1.27,1.2c-0.54,0.56-1.08,1.13-1.61,1.69c-0.49,0.52-0.93,1.1-1.4,1.64c-0.8,0.94-1.58,1.91-2.36,2.87
			c-1.68,2.07-3.39,4.12-5.1,6.17c-1.79,2.15-3.57,4.32-5.29,6.53c-0.61,0.79-1.2,1.6-1.75,2.43c-0.14,0.15-0.29,0.29-0.43,0.44
			c-1.79,1.84-3.63,3.65-5.26,5.63c-0.53,0.64-1.05,1.27-1.54,1.94c-0.54,0.75-0.73,1.61-0.84,2.51c-0.05,0.46,0.07,0.95,0.15,1.41
			c0.07,0.26,0.16,0.51,0.25,0.76c0.12,0.36,0.26,0.71,0.41,1.06c0.45,1.08,1.06,2.09,1.65,3.09c0.34,0.57,0.66,1.15,1.02,1.71
			c0.78,1.22,1.57,2.43,2.39,3.63c0.88,1.29,1.82,2.53,2.75,3.79c0.8,1.08,1.65,2.13,2.48,3.18c0.72,0.91,1.44,1.81,2.21,2.67
			c1.29,1.44,2.75,2.69,4.27,3.87c1.38,1.07,2.84,2.01,4.36,2.85c1.13,0.63,2.31,1.15,3.49,1.67c1.25,0.55,2.51,1.05,3.78,1.53
			c1.15,0.44,2.34,0.85,3.52,1.2c0.95,0.28,1.9,0.6,2.88,0.71c0.41,0.04,0.78,0.06,1.19,0.02c0.2-0.02,0.4-0.04,0.6-0.06
			c0.28-0.05,0.54-0.13,0.8-0.23c0.47-0.16,0.9-0.35,1.34-0.58c0.52-0.27,0.98-0.64,1.46-0.99c0.64-0.47,1.18-1.07,1.68-1.68
			c0.57-0.69,1.12-1.41,1.62-2.15c0.56-0.83,1.07-1.69,1.58-2.55c0.69-1.17,1.37-2.34,2.03-3.52c1.26-2.25,2.47-4.51,3.71-6.77
			c1.28-2.35,2.56-4.69,3.99-6.95c0.58-0.92,1.16-1.82,1.79-2.7c0.91-1.27,1.82-2.53,2.79-3.76c1.84-2.2,4.02-4.07,6.26-5.84
			c1.62-1.28,3.22-2.58,4.88-3.8c0.93-0.65,1.9-1.22,2.95-1.67c0.62-0.21,1.25-0.36,1.9-0.46c1.39-0.08,2.77,0.02,4.14,0.23
			c1.72,0.33,3.38,0.84,4.99,1.52c3.64,1.72,6.82,4.19,9.99,6.63c1.86,1.53,3.71,3.08,5.5,4.71c1.98,1.81,3.95,3.63,5.94,5.43
			c1.98,1.79,3.97,3.57,6,5.31c2.88,2.47,5.8,4.92,8.97,7c0.77,0.51,1.56,0.98,2.36,1.44c0.67,0.39,1.36,0.78,2.06,1.12
			c0.66,0.32,1.32,0.63,1.97,0.95c1.26,0.61,2.52,1.21,3.8,1.76c2.44,1.06,4.89,2.12,7.39,3.04c1.25,0.46,2.5,0.97,3.78,1.35
			c1.26,0.38,2.52,0.81,3.8,1.1c1.31,0.3,2.62,0.64,3.95,0.88c1.51,0.27,3.02,0.56,4.54,0.79c2.64,0.4,5.28,0.83,7.93,1.17
			c0.81,0.1,1.61,0.2,2.41,0.31c0.55,0.07,1.11,0.17,1.67,0.21c1.56,0.12,3.13,0.24,4.69,0.35c0.36,0.03,0.72,0.03,1.08,0.03
			c0.98,0.02,1.97,0.04,2.95,0.05c1.23,0.02,2.46-0.04,3.69-0.09c0.7-0.03,1.4-0.06,2.11-0.09c0.67-0.03,1.36-0.13,2.03-0.19
			c0.91-0.09,1.82-0.18,2.74-0.27c0.43-0.04,0.88-0.07,1.31-0.14c1.55-0.25,3.11-0.51,4.66-0.76c1.29-0.21,2.57-0.55,3.83-0.87
			c1.98-0.51,3.93-1.14,5.85-1.84c2.62-0.96,5.2-2.05,7.69-3.31c1.47-0.74,2.94-1.49,4.41-2.23c0.31-0.16,0.61-0.35,0.91-0.52
			C649.88,481.63,650.73,481.13,651.58,480.64z M605.62,386.01c-0.99,0.19-1.96,0.5-2.92,0.78c-0.62,0.18-1.23,0.38-1.84,0.59
			c-1.16,0.39-2.31,0.81-3.46,1.21c-2.5,0.87-5,1.76-7.56,2.45c-1.41,0.39-2.82,0.76-4.25,1.1c-1.32,0.32-2.66,0.58-3.99,0.86
			c-0.79,0.16-1.58,0.29-2.37,0.42c2.16-0.71,4.32-1.44,6.48-2.17c2.51-0.85,5.04-1.66,7.58-2.43c1.28-0.39,2.56-0.78,3.86-1.14
			c0.77-0.22,1.54-0.43,2.31-0.65c1.7-0.48,3.43-0.82,5.18-1.01c0.43-0.03,0.86-0.05,1.29-0.06
			C605.82,385.97,605.72,385.99,605.62,386.01z M640.74,479.34c-2.1,1.07-4.26,2.02-6.45,2.87c-2.98,1.08-6.02,1.94-9.11,2.6
			c-0.38,0.08-0.77,0.13-1.16,0.2c-0.82,0.14-1.65,0.28-2.47,0.42c-0.85,0.15-1.69,0.27-2.54,0.36c-1.11,0.12-2.23,0.24-3.34,0.37
			c-1.37,0.07-2.73,0.15-4.1,0.22c-1.21,0.07-2.43,0.02-3.65,0.02c-0.57,0-1.14,0-1.71-0.01c-0.55,0-1.11-0.07-1.66-0.1
			c-1.24-0.07-2.49-0.11-3.72-0.24c-2.6-0.28-5.21-0.56-7.81-0.9c-1.31-0.17-2.62-0.31-3.92-0.52c-1.17-0.18-2.34-0.37-3.51-0.55
			c-0.87-0.18-1.75-0.36-2.62-0.54c-0.64-0.13-1.28-0.26-1.92-0.44c-1.04-0.29-2.08-0.58-3.12-0.87c-0.75-0.21-1.48-0.5-2.21-0.75
			c-1.73-0.6-3.44-1.26-5.15-1.91c-1.41-0.54-2.79-1.15-4.18-1.73c-0.84-0.4-1.68-0.8-2.52-1.19c-0.43-0.2-0.87-0.41-1.3-0.62
			c-1.14-0.54-2.23-1.2-3.31-1.84c-1.74-1.04-3.42-2.21-4.99-3.48c-0.72-0.58-1.44-1.16-2.17-1.75c-2.07-1.77-4.12-3.56-6.17-5.36
			c-1.84-1.62-3.64-3.28-5.46-4.92c-2.12-1.9-4.24-3.81-6.46-5.6c-1.07-0.86-2.13-1.72-3.23-2.55c-1.11-0.83-2.23-1.65-3.37-2.44
			c-0.61-0.42-1.21-0.84-1.83-1.24c-1.7-1.08-3.47-1.98-5.33-2.75c-1.69-0.7-3.46-1.15-5.26-1.45c-1.85-0.31-3.68-0.43-5.55-0.24
			c-1.74,0.18-3.39,0.8-4.91,1.65c-0.82,0.46-1.57,1.01-2.32,1.56c-0.63,0.45-1.24,0.94-1.85,1.43c-1.26,1.01-2.52,2.02-3.78,3.03
			c-2.12,1.7-4.16,3.55-5.87,5.66c-1.27,1.57-2.42,3.21-3.59,4.84c-0.75,1.06-1.42,2.17-2.11,3.27c-0.69,1.1-1.31,2.24-1.95,3.36
			c-1.43,2.51-2.78,5.07-4.17,7.61c-0.65,1.19-1.31,2.38-2,3.53c-1.11,1.84-2.18,3.72-3.5,5.43c-0.49,0.58-1.01,1.12-1.6,1.6
			c-0.38,0.25-0.78,0.46-1.19,0.64c-0.08,0.02-0.16,0.04-0.24,0.06c-0.16,0-0.31-0.01-0.47-0.03c-0.71-0.18-1.41-0.45-2.1-0.69
			c-0.55-0.19-1.11-0.4-1.65-0.62c-1.26-0.49-2.51-1.01-3.76-1.53c-0.68-0.32-1.37-0.64-2.05-0.96c-1.2-0.56-2.34-1.27-3.46-1.98
			c-0.97-0.62-1.91-1.31-2.81-2.03c-1.03-0.86-1.98-1.79-2.89-2.78c-0.79-0.86-1.51-1.79-2.22-2.72c-0.56-0.73-1.13-1.47-1.69-2.2
			c0.03,0.03,0.05,0.05,0.08,0.08c0.95,0.93,1.92,1.84,2.91,2.73c0.55,0.5,1.09,1.01,1.66,1.48c0.39,0.32,0.78,0.65,1.17,0.97
			c0.25,0.21,0.49,0.43,0.76,0.62c0.65,0.46,1.3,0.93,1.95,1.39c0.61,0.44,1.27,0.81,1.91,1.22c1.31,0.84,2.65,1.62,4.02,2.36
			c0.55,0.3,1.24,0.17,1.58-0.38c0.32-0.52,0.16-1.27-0.38-1.58c-1.34-0.78-2.66-1.61-3.94-2.49c-0.62-0.43-1.27-0.82-1.87-1.28
			c-0.59-0.45-1.18-0.9-1.77-1.34c-1.01-0.89-2-1.78-2.98-2.69c-0.89-0.83-1.77-1.68-2.64-2.54c-2.32-2.31-4.67-4.62-6.62-7.25
			c-0.76-1.08-1.45-2.2-1.96-3.43c-0.13-0.37-0.23-0.74-0.32-1.13c0.29-0.3,0.58-0.61,0.87-0.91c0.88-0.92,1.75-1.83,2.63-2.75
			c1.79-1.86,3.6-3.69,5.43-5.49c3.89-3.83,7.87-7.57,11.89-11.26c1.85-1.7,3.74-3.36,5.62-5.03c0.84-0.75,1.72-1.46,2.58-2.18
			c1.56-1.31,3.13-2.6,4.77-3.81c1.42-1,2.88-1.93,4.39-2.78c1.48-0.83,3.03-1.52,4.61-2.14c3.58-1.28,7.34-2.03,11.12-2.41
			c3-0.25,6-0.24,8.98,0.15c0.96,0.43,1.93,0.86,2.87,1.33c1.26,0.63,2.49,1.27,3.73,1.94c2.36,1.28,4.63,2.7,6.9,4.13
			c4.45,2.81,9,5.45,13.48,8.2c4.51,2.76,8.98,5.59,13.46,8.39c2.15,1.34,4.34,2.63,6.51,3.94c0.29,0.18,0.58,0.35,0.87,0.53
			c0.82,0.6,1.65,1.18,2.49,1.75c1.27,0.85,2.54,1.7,3.81,2.56c0.36,0.24,0.74,0.46,1.11,0.69c0.85,0.53,1.7,1.06,2.55,1.59
			c2.06,1.28,4.14,2.51,6.25,3.7c1.14,0.64,2.26,1.31,3.41,1.92c1.39,0.74,2.78,1.49,4.18,2.23c1.44,0.77,2.93,1.43,4.42,2.09
			c1.72,0.76,3.49,1.39,5.28,1.96c3.67,1.18,7.49,1.92,11.34,2.18c1.84,0.13,3.67,0.06,5.5-0.11c1.89-0.18,3.73-0.58,5.55-1.1
			c1.87-0.54,3.7-1.26,5.5-1.99c1.17-0.48,2.34-0.99,3.47-1.57c1.39-0.72,2.78-1.45,4.17-2.17c0.36-0.19,0.7-0.43,1.04-0.64
			c0.82-0.51,1.65-1.02,2.47-1.53c1.01-0.63,1.97-1.33,2.94-2.02c0.65-0.46,1.29-0.92,1.93-1.38c1.21-0.86,2.38-1.79,3.52-2.74
			c2.95-2.45,5.5-5.33,7.83-8.37c0.99-1.3,1.92-2.65,2.79-4.03c0.16-0.2,0.31-0.4,0.46-0.61c0.43-0.6,0.85-1.2,1.28-1.8
			c0.38-0.54,0.72-1.1,1.07-1.66c0.93-1.46,1.74-3.03,2.43-4.62c1.47-3.33,2.3-6.92,2.31-10.57c0-0.15,0-0.3,0-0.45
			c0.04-0.53,0.07-1.07,0.08-1.6c0.04-1.94-0.15-3.89-0.37-5.82c-0.44-3.82-1.56-7.53-3.11-11.04c-0.77-1.75-1.79-3.38-2.92-4.92
			c-1.11-1.53-2.35-2.93-3.71-4.23c-2.72-2.61-5.94-4.61-9.31-6.27c-2.64-1.3-5.39-2.42-8.25-3.13c-0.86-0.21-1.71-0.42-2.57-0.64
			c-0.41-0.1-0.81-0.21-1.23-0.28c-1.47-0.26-2.93-0.52-4.4-0.78c-1.76-0.31-3.54-0.5-5.32-0.63c-2-0.14-4-0.15-6,0.07
			c-0.84,0.09-1.67,0.21-2.5,0.37c-0.9,0.17-1.78,0.41-2.66,0.63c-0.7,0.18-1.4,0.4-2.09,0.59c-5.23,1.48-10.37,3.28-15.5,5.09
			c-1.01,0.36-2.02,0.7-3.03,1.05c-1.14,0.39-2.27,0.81-3.43,1.15c-1.47,0.43-2.95,0.86-4.43,1.28c-1.35,0.39-2.74,0.66-4.12,0.92
			c-1.59,0.3-3.2,0.53-4.81,0.69c-3.35,0.27-6.7,0.24-10.02-0.26c-2.34-0.42-4.61-1.06-6.79-2c-1.85-0.87-3.58-1.95-5.2-3.2
			c-1.83-1.52-3.43-3.25-4.86-5.15c-1.88-2.66-3.45-5.55-4.64-8.59c-0.84-2.33-1.47-4.7-1.74-7.16c-0.14-1.93-0.06-3.85,0.23-5.76
			c0.37-1.97,0.97-3.87,1.75-5.72c0.11-0.23,0.22-0.46,0.33-0.69c0.14-0.2,0.28-0.39,0.43-0.59c1.01-1.2,2.12-2.31,3.26-3.39
			c0.91-0.86,1.83-1.71,2.8-2.5c1.92-1.57,3.89-3.07,5.88-4.54c1.13-0.81,2.26-1.63,3.46-2.35c1.44-0.87,2.88-1.69,4.38-2.45
			c1.53-0.77,3.09-1.5,4.65-2.22c1.38-0.63,2.79-1.19,4.21-1.75c2.95-1.09,5.93-2.11,8.99-2.85c1.65-0.4,3.3-0.77,4.97-1.07
			c0.5-0.09,1-0.18,1.5-0.26c0.52,0.01,1.05,0.02,1.57,0.04c0.37,0.01,0.72-0.15,0.96-0.41c0.26-0.03,0.53-0.06,0.79-0.09
			c1.59-0.08,3.16-0.13,4.75-0.11c1.64,0.02,3.28,0.11,4.91,0.21c3.03,0.19,6.04,0.52,9.04,0.94c1.41,0.26,2.82,0.51,4.2,0.88
			c1.67,0.45,3.34,0.89,4.97,1.48c1.69,0.61,3.35,1.24,5.02,1.9c1.43,0.57,2.83,1.2,4.24,1.82c1.07,0.51,2.15,1,3.21,1.53
			c1.29,0.65,2.57,1.31,3.85,1.99c2.23,1.19,4.44,2.43,6.59,3.75c2.4,1.47,4.76,2.98,7.08,4.57c2.27,1.55,4.5,3.16,6.71,4.79
			c1.08,0.79,2.12,1.64,3.17,2.47c1.01,0.88,2.03,1.76,3.04,2.63c0.33,0.28,0.63,0.6,0.95,0.9c0.62,0.6,1.25,1.2,1.87,1.81
			c0.94,0.9,1.82,1.86,2.73,2.79c0.88,0.9,1.74,1.82,2.6,2.74c1.65,1.75,3.28,3.53,4.8,5.39c0.57,0.7,1.14,1.4,1.72,2.1
			c0.24,0.29,0.48,0.58,0.71,0.89c0.7,0.97,1.4,1.93,2.1,2.9c0.75,1.2,1.51,2.39,2.26,3.58c0.17,0.28,0.33,0.56,0.48,0.85
			c0.04,0.07,0.07,0.14,0.11,0.21c0.02,0.04,0.04,0.07,0.06,0.11c0.4,0.73,0.8,1.47,1.2,2.2c0.24,0.43,0.43,0.89,0.65,1.34
			c0.34,0.7,0.67,1.4,1.01,2.09c0.24,0.51,0.44,1.04,0.65,1.56c0.23,0.56,0.47,1.12,0.7,1.68c0.34,0.97,0.69,1.94,1.03,2.91
			c0.11,0.31,0.19,0.62,0.28,0.94c0.22,0.77,0.45,1.55,0.67,2.32c0.3,1.04,0.53,2.1,0.78,3.16c0.27,1.1,0.48,2.22,0.71,3.33
			c0.42,2.05,0.78,4.12,1.04,6.19c0.14,1.12,0.31,2.25,0.42,3.37c0.11,1.06,0.21,2.12,0.32,3.18c0.1,1.22,0.19,2.43,0.29,3.65
			c0.1,1.23,0.09,2.47,0.13,3.7c0.04,1.19-0.05,2.39-0.1,3.59c-0.09,2.31-0.3,4.62-0.65,6.9c-0.32,1.77-0.72,3.52-1.23,5.25
			c-0.56,1.9-1.25,3.77-2.04,5.58c-0.83,1.79-1.77,3.51-2.8,5.2c-0.67,1.09-1.36,2.17-2.12,3.2c-0.94,1.28-1.88,2.56-2.83,3.85
			c-0.69,0.81-1.37,1.62-2.06,2.43c-0.62,0.72-1.25,1.42-1.9,2.11c-0.96,1.02-1.9,2.05-2.89,3.04c-2.25,2.26-4.61,4.4-7.18,6.31
			c-1.6,1.12-3.25,2.12-4.93,3.1c-0.77,0.45-1.54,0.89-2.31,1.34c-0.27,0.16-0.54,0.32-0.83,0.47
			C643.62,477.87,642.18,478.61,640.74,479.34z"/>
		<path class="st0" d="M394.59,498.77c-0.49,0.62-0.94,1.27-1.32,1.97c-3.15,5.68-2.12,12.74,0.73,18.31
			c0.69,1.36,1.58,2.61,2.5,3.82c0.96,1.27,2.08,2.43,3.28,3.48c2.47,2.19,5.27,3.89,8.28,5.23c1.33,0.59,2.69,1.13,4.09,1.53
			c1.57,0.45,3.2,0.74,4.82,0.83c1.49,0.09,3.01-0.05,4.49-0.26c1.57-0.22,3.11-0.65,4.61-1.17c3.11-1.08,5.98-2.64,8.68-4.53
			c1.26-0.89,2.49-1.82,3.65-2.85c1.24-1.1,2.36-2.3,3.4-3.59c0.91-1.13,1.71-2.31,2.37-3.6c0.74-1.46,1.32-3.01,1.79-4.57
			c0.9-3.02,1.15-6.24,0.39-9.31c-0.29-1.18-0.76-2.33-1.33-3.4c-0.15-0.28-0.31-0.56-0.47-0.83c-0.86-1.41-1.9-2.72-3.04-3.91
			c-2.17-2.27-4.67-4.22-7.49-5.62c-1.37-0.68-2.79-1.22-4.26-1.65c-1.61-0.47-3.29-0.74-4.95-0.92c-1.43-0.16-2.88-0.18-4.32-0.12
			c-1.67,0.07-3.35,0.29-4.98,0.65c-1.51,0.34-2.97,0.87-4.4,1.45c-0.61,0.25-1.21,0.53-1.79,0.83c-0.31,0.08-0.62,0.16-0.93,0.24
			c-3.01,0.82-5.98,1.97-8.67,3.58c-1.28,0.76-2.5,1.67-3.59,2.68C395.55,497.58,395.07,498.17,394.59,498.77z M441.41,503.99
			c0.29,0.88,0.5,1.77,0.62,2.69c0.06,1.07-0.01,2.13-0.16,3.2c-0.33,1.71-0.86,3.37-1.54,4.96c0.32-2.62,0.19-5.26-0.07-7.89
			c-0.1-1.01-0.26-2.01-0.49-2.99c0.35-0.21,0.61-0.55,0.72-0.94c0.06-0.21,0.09-0.46,0.06-0.71
			C440.88,502.85,441.16,503.41,441.41,503.99z M410.31,497.05c0.6,0.37,1.25,0.43,1.93,0.32c0.9-0.15,1.81-0.25,2.72-0.34
			c0.92-0.07,1.83-0.14,2.75-0.21c2.19-0.17,4.38-0.19,6.56,0.12c1.6,0.29,3.19,0.68,4.69,1.3c0.96,0.47,1.84,1.03,2.69,1.67
			c0.69,0.6,1.31,1.25,1.88,1.97c0.42,0.63,0.78,1.27,1.08,1.97c0.61,1.83,0.95,3.71,1.16,5.62c0.14,1.83,0.16,3.7-0.09,5.52
			c-0.22,1.16-0.52,2.31-0.96,3.4c-0.47,0.95-1.03,1.85-1.67,2.69c-1.06,1.24-2.27,2.37-3.57,3.36c-0.97,0.66-1.97,1.23-3.05,1.68
			c-0.84,0.28-1.69,0.49-2.57,0.61c-0.85,0.05-1.7,0.02-2.55-0.09c-1.55-0.29-3.05-0.73-4.56-1.19c-1.69-0.51-3.35-1.11-4.97-1.8
			c-2.01-0.94-3.88-2.13-5.63-3.49c-1.36-1.13-2.62-2.38-3.7-3.79c-0.68-0.98-1.27-1.99-1.73-3.08c-0.3-0.9-0.52-1.8-0.64-2.74
			c-0.05-0.92,0.01-1.82,0.14-2.73c0.21-1.11,0.52-2.18,0.95-3.23c0.6-1.2,1.37-2.3,2.2-3.36c1.52-1.82,3.25-3.48,5.15-4.9
			c0.25-0.18,0.5-0.35,0.76-0.51C409.47,496.33,409.84,496.76,410.31,497.05z"/>
	</g>
	<g>
		<path class="st1" d="M359.3,442.56c3.39-0.17,6.7-1.03,9.88-2.17c1.53-0.55,2.98-1.29,4.32-2.21c1.53-1.04,2.67-2.58,3.65-4.11
			c0.49-0.77,0.89-1.58,1.31-2.39c0.41-0.79,0.78-1.59,1.13-2.4c0.32-0.75,0.59-1.53,0.87-2.3c0.88-2.36,1.49-4.83,2.15-7.26
			c1.27-4.67,2.34-9.39,3.4-14.12c0.42-1.89,0.99-3.74,1.55-5.59c0.14-0.45,0.31-0.89,0.47-1.33c0.14-0.39,0.26-0.8,0.43-1.18
			c0.52-1.24,1.04-2.48,1.65-3.68c0.77-1.41,1.64-2.77,2.69-3.99c1.08-1.09,2.27-2,3.56-2.83c1.66-0.98,3.4-1.77,5.15-2.58
			c1.06-0.49,2.18-0.87,3.27-1.3c1.09-0.43,2.23-0.78,3.34-1.16c1.07-0.37,2.18-0.67,3.27-1c-0.12,0.04-0.24,0.07-0.36,0.11
			c2.29-0.6,4.57-1.24,6.89-1.72c2.37-0.49,4.75-0.97,7.14-1.33c2.51-0.37,5.03-0.72,7.55-1.04c2.49-0.31,4.97-0.67,7.43-1.12
			c4.92-0.9,9.82-1.97,14.66-3.26c2.49-0.66,4.94-1.46,7.34-2.4c0.68-0.27,1.36-0.54,2.04-0.81c0.47-0.19,0.93-0.42,1.39-0.63
			c0.62-0.28,1.23-0.57,1.85-0.86c0.51-0.24,1-0.55,1.49-0.83c0.6-0.33,1.2-0.67,1.8-1c0.58-0.32,1.14-0.72,1.69-1.08
			c1.04-0.68,2.07-1.34,3.06-2.08c1.01-0.75,2.02-1.49,3-2.26c0.3-0.24,0.6-0.49,0.9-0.73c0.02-0.01,0.04-0.01,0.05-0.02
			c0.34-0.15,0.63-0.41,0.84-0.71c0.44-0.36,0.87-0.73,1.3-1.1c0.36-0.31,0.7-0.65,1.04-0.99c0.54-0.53,1.09-1.05,1.59-1.62
			c0.79-0.89,1.6-1.76,2.34-2.69c1.9-2.37,3.8-4.75,5.45-7.3c1.99-3.08,3.33-6.51,4.47-9.98c0.38-1.17,0.7-2.36,1.06-3.53
			c0.17-0.57,0.28-1.16,0.42-1.74c0.2-0.85,0.41-1.69,0.59-2.55c0.52-2.59,0.83-5.24,0.88-7.88c0.02-1.23,0.09-2.47,0.05-3.7
			c-0.04-1.41-0.06-2.82-0.14-4.22c-0.14-2.58-0.29-5.16-0.46-7.73c-0.09-1.39-0.27-2.78-0.4-4.16c-0.11-1.15-0.28-2.28-0.43-3.43
			c-0.3-2.25-0.69-4.48-1.25-6.68c-0.52-2.04-1.2-4.02-1.88-6c-0.8-2.33-1.79-4.6-2.78-6.85c-1-2.26-2.16-4.45-3.34-6.62
			c-1.17-2.15-2.4-4.26-3.63-6.38c-1.25-2.16-2.49-4.33-3.75-6.49c-0.74-1.27-1.54-2.5-2.33-3.73c-0.67-1.05-1.4-2.05-2.13-3.06
			c-0.72-1-1.51-1.94-2.29-2.9c-0.78-0.95-1.65-1.83-2.49-2.72c-0.83-0.89-1.74-1.71-2.62-2.56c-1.05-1.02-2.17-1.97-3.26-2.94
			c-1.85-1.64-3.83-3.13-5.8-4.63c-0.44-0.33-0.88-0.66-1.33-0.98c-1.78-1.26-3.65-2.41-5.62-3.35c-0.64-0.31-1.28-0.61-1.92-0.92
			c-0.44-0.21-0.88-0.45-1.34-0.63c-1.11-0.44-2.22-0.92-3.36-1.29c-1.17-0.38-2.33-0.78-3.51-1.11c-2.52-0.72-5.03-1.42-7.58-2.02
			c-0.67-0.16-1.35-0.33-2.03-0.45c-0.85-0.14-1.7-0.29-2.55-0.44c-1.22-0.21-2.47-0.32-3.7-0.47c-1.2-0.14-2.41-0.22-3.61-0.32
			c-1.09-0.09-2.19-0.16-3.28-0.22c-1.23-0.06-2.45-0.13-3.67-0.14c-1.37-0.02-2.73,0.01-4.11,0.05c-2.55,0.08-5.11,0.23-7.64,0.54
			c-1.31,0.16-2.62,0.33-3.93,0.53c-1.24,0.19-2.48,0.42-3.71,0.65c-1.09,0.2-2.18,0.5-3.25,0.8c-1.5,0.43-2.99,0.89-4.48,1.36
			c-2.26,0.72-4.49,1.5-6.74,2.25c-1.34,0.44-2.65,0.94-3.95,1.48c-0.03-0.06-0.07-0.11-0.11-0.17c-0.09-0.11-0.19-0.2-0.31-0.29
			c-0.23-0.16-0.49-0.26-0.77-0.29c-0.4-0.03-0.82,0.09-1.13,0.35c-0.3,0.24-0.58,0.68-0.57,1.08c0,0.21,0.01,0.42,0.01,0.62
			c-2.15,1.08-4.23,2.3-6.31,3.5c-1.26,0.73-2.48,1.51-3.69,2.31c-0.85,0.56-1.65,1.22-2.43,1.87c-0.01,0.01-0.03,0.02-0.04,0.03
			c-0.14,0.12-0.28,0.23-0.42,0.35c-1.82,1.5-3.55,3.15-5.25,4.78c-1.03,1-2.03,2.03-2.99,3.09c-0.99,0.81-1.98,1.61-2.96,2.42
			c-1.32,1.08-2.55,2.31-3.74,3.53c-1.34,1.38-2.58,2.84-3.73,4.38c-2.17,2.92-3.92,6.15-5.45,9.44c-0.63,1.35-1.16,2.74-1.73,4.12
			c-0.46,1.11-0.81,2.27-1.2,3.41c-0.37,1.06-0.67,2.13-0.97,3.21c-0.31,1.09-0.61,2.17-0.86,3.28c-0.24,1.07-0.51,2.13-0.73,3.2
			c-0.07,0.02-0.14,0.04-0.21,0.07c-1,0.45-1.46,1.67-1.01,2.67c0.18,0.39,0.36,0.78,0.54,1.17c-0.1,0.64-0.19,1.28-0.27,1.92
			c-0.18,1.58-0.24,3.17-0.22,4.76c0.01,0.85,0.06,1.71,0.12,2.56c0.06,0.79,0.12,1.6,0.25,2.39c0.26,1.53,0.49,3.06,0.83,4.57
			c0.36,1.61,0.84,3.2,1.38,4.75c0.45,1.29,0.98,2.56,1.61,3.77c0.58,1.11,1.14,2.22,1.79,3.29c0.35,0.58,0.71,1.17,1.06,1.75
			c0.91,1.51,1.97,2.94,3.09,4.31c1.46,1.77,3.14,3.32,4.83,4.85c0.57,0.52,1.14,1.02,1.73,1.51c1.33,1.11,2.8,1.95,4.33,2.74
			c2.83,1.45,6.06,2.13,9.21,2.36c1.56,0.11,3.14,0.03,4.69-0.17c1.77-0.22,3.49-0.67,5.19-1.21c1.46-0.47,2.87-1.11,4.22-1.84
			c0.78-0.42,1.53-0.91,2.27-1.4c0.71-0.47,1.3-1.1,1.87-1.72c1.1-1.21,1.88-2.6,2.6-4.06c0.72-1.47,1.19-3.07,1.59-4.65
			c0.63-2.44,1.04-4.93,1.59-7.38c-0.05,0.21-0.09,0.42-0.14,0.62c0.3-1.34,0.6-2.68,0.9-4.02c0.77-3.12,1.52-6.24,2.35-9.34
			c0.47-1.74,0.97-3.46,1.49-5.19c0.21-0.69,0.48-1.35,0.72-2.03c0.47-1.28,0.97-2.54,1.59-3.76c1.29-2.34,2.88-4.5,4.67-6.48
			c0.85-0.87,1.75-1.65,2.77-2.32c1.42-0.82,2.92-1.42,4.48-1.92c2.4-0.68,4.89-1.07,7.38-1.2c1.73-0.03,3.44,0.09,5.14,0.43
			c1.22,0.3,2.4,0.69,3.55,1.17c0.05,0.22,0.11,0.43,0.18,0.64c0.16,0.51,0.46,0.94,0.8,1.35c0.76,0.89,2.11,1.06,3.03,0.31
			c0.04-0.04,0.08-0.07,0.12-0.11c1.29,0.82,2.53,1.73,3.7,2.72c-0.03,0.11-0.06,0.22-0.08,0.34c-0.04,0.18-0.08,0.36-0.12,0.54
			c-0.03,0.37,0.03,0.73,0.18,1.07c0.23,0.52,0.68,0.93,1.21,1.13c0.52,0.19,1.1,0.17,1.61-0.06c0.04-0.02,0.08-0.04,0.12-0.06
			c1.34,1.52,2.56,3.15,3.65,4.86c1.87,3.11,3.29,6.45,4.39,9.91c0.33,1.12,0.6,2.26,0.82,3.41c0.25,1.33,0.35,2.68,0.41,4.03
			c0.06,1.87,0.05,3.75-0.12,5.62c-0.1,1.17-0.2,2.33-0.3,3.49c-0.08,0.86-0.27,1.73-0.41,2.58c-0.21,1.29-0.43,2.57-0.7,3.84
			c-0.51,2.18-1.14,4.32-1.92,6.41c-0.8,2.15-1.79,4.21-2.84,6.24c-0.96,1.78-2.03,3.47-3.37,4.98c-1.78,1.81-3.75,3.43-5.88,4.81
			c-2.73,1.58-5.69,2.64-8.66,3.65c-1.35,0.46-2.7,0.91-4.06,1.34c-1.16,0.32-2.32,0.64-3.49,0.96c-1.24,0.34-2.51,0.59-3.77,0.88
			c-0.19,0.04-0.38,0.08-0.57,0.12c-0.06-0.24-0.17-0.48-0.35-0.7c-0.11-0.14-0.24-0.26-0.38-0.36c-0.28-0.2-0.62-0.33-0.97-0.36
			c-0.51-0.05-1.02,0.11-1.42,0.43c-0.37,0.31-0.72,0.85-0.71,1.35c0,0.11,0,0.23,0,0.35c-1,0.17-2,0.3-3,0.45
			c-2.42,0.37-4.86,0.55-7.29,0.74c-2.46,0.2-4.93,0.27-7.4,0.4c-2.72,0.14-5.44,0.43-8.13,0.86c-1.56,0.25-3.11,0.63-4.62,1.09
			c-1.27,0.38-2.54,0.8-3.77,1.3c-1.12,0.45-2.26,0.88-3.36,1.39c-2.77,1.31-5.53,2.63-8.15,4.23c-1.5,0.91-2.95,1.89-4.31,2.99
			c-1.49,1.22-2.82,2.63-4.09,4.06c-0.46,0.52-0.89,1.08-1.33,1.63c-0.34,0.42-0.69,0.83-1,1.26c-0.75,1.04-1.51,2.08-2.22,3.15
			c-0.36,0.55-0.73,1.11-1.1,1.66c-0.37,0.56-0.68,1.18-1.02,1.76c-0.72,1.25-1.37,2.54-2.02,3.83c-0.56,1.11-1.04,2.25-1.54,3.39
			c-0.17,0.39-0.3,0.79-0.45,1.2c-0.26,0.72-0.52,1.45-0.78,2.17c-0.17,0.48-0.28,1-0.42,1.5c-0.17,0.63-0.35,1.26-0.52,1.9
			c-0.16,0.6-0.28,1.21-0.4,1.82c-0.01,0.02-0.03,0.04-0.04,0.06c-0.48,0.66-0.87,1.34-1.18,2.1c-0.17,0.43-0.14,0.95,0.05,1.37
			c0.09,0.21,0.22,0.39,0.38,0.54c-0.12,0.72-0.23,1.43-0.35,2.15c-0.2,1.24-0.3,2.5-0.44,3.75c-0.05,0.41-0.06,0.83-0.08,1.25
			c-0.05,0.82-0.1,1.65-0.14,2.47c-0.09,1.44-0.05,2.9,0.01,4.35c0.08,1.78,0.25,3.56,0.54,5.32c0.55,3.4,1.67,6.77,3.19,9.85
			c0.73,1.49,1.61,2.93,2.59,4.27c0.93,1.27,2.05,2.38,3.2,3.45c0.47,0.43,0.93,0.87,1.4,1.3c0.63,0.58,1.28,1.11,2,1.58
			c0.85,0.55,1.78,1,2.72,1.37c1.56,0.62,3.25,0.93,4.91,1.15C355.5,442.62,357.41,442.66,359.3,442.56z M338.73,406.25
			c-0.09,0.03-0.17,0.06-0.26,0.08c0.07-1.08,0.2-2.15,0.31-3.22c0.01-0.01,0.02-0.01,0.03-0.02c0.22-0.14,0.42-0.33,0.61-0.53
			c0.09,0.6,0.42,1.17,0.92,1.53c0.49,0.35,1.14,0.48,1.74,0.37c0.01,0.03,0.03,0.06,0.04,0.1c0.1,0.21,0.22,0.4,0.37,0.57
			c-0.76,0.23-1.53,0.46-2.29,0.68C339.71,405.95,339.22,406.1,338.73,406.25z M406.8,357.34c0.83-0.14,1.65-0.31,2.47-0.49
			c0.06,0.05,0.12,0.1,0.19,0.15c-0.42,0.13-0.84,0.25-1.25,0.38c-0.42,0.13-0.84,0.25-1.27,0.37c-0.5,0.12-0.93,0.32-1.28,0.68
			c0.01-0.3,0.01-0.6,0.02-0.91C406.06,357.47,406.43,357.4,406.8,357.34z M419.32,373.93c0.03-0.13,0.06-0.26,0.09-0.4
			c0.45-0.23,0.78-0.59,1.12-0.96c0.26-0.28,0.32-0.79,0.26-1.14c-0.09-0.55-0.47-0.98-0.99-1.18c-0.39-0.16-0.77-0.32-1.19-0.38
			c-0.08-0.01-0.16-0.02-0.23-0.03c0.29-0.38,0.44-0.81,0.37-1.32c0.29-0.15,0.54-0.37,0.73-0.64c0.28-0.4,0.5-1.05,0.36-1.55
			c-0.08-0.28-0.15-0.56-0.27-0.82c0.03-0.01,0.06-0.02,0.1-0.03c0.14,0.46,0.28,0.92,0.43,1.38c0.4,1.38,0.7,2.76,0.89,4.19
			c0.08,0.58,0.15,1.15,0.2,1.73c0.01,0.26,0.01,0.52,0,0.78C420.55,373.68,419.94,373.8,419.32,373.93z M400.7,379.52
			c-0.15,0.06-0.29,0.12-0.44,0.19c0.03-0.08,0.05-0.15,0.08-0.23c0.12,0.03,0.25,0.04,0.39,0.03
			C400.72,379.51,400.71,379.52,400.7,379.52z M410.1,373.67c-1.23,0.4-2.46,0.78-3.69,1.16c-0.82,0.23-1.65,0.46-2.47,0.69
			c-0.09,0.02-0.18,0.05-0.27,0.07c0.25-0.95,0.48-1.9,0.67-2.86c0.1,0.42,0.33,0.8,0.7,1.05c0.16,0.12,0.34,0.22,0.53,0.29
			c0.22,0.05,0.44,0.1,0.66,0.14c0.22-0.01,0.45-0.01,0.67-0.02c0.16-0.02,0.32-0.05,0.47-0.09c0.38-0.09,0.75-0.17,1.14-0.22
			C409.04,373.81,409.57,373.74,410.1,373.67z M417.45,360.78c-0.45,0.08-0.9,0.16-1.35,0.24c-0.03-0.05-0.07-0.1-0.11-0.14
			c-0.04-0.05-0.08-0.1-0.13-0.14c0.78-0.76,0.87-1.91,0.24-2.8c0.04-0.17,0.07-0.34,0.07-0.5c0.61,1.06,1.15,2.16,1.64,3.29
			C417.7,360.74,417.57,360.76,417.45,360.78z M405.79,366.58c-0.03,0.22-0.03,0.45,0.01,0.67c0.05,0.3,0.16,0.58,0.32,0.83
			c-0.19,0.05-0.37,0.09-0.56,0.14c-0.19,0.05-0.38,0.11-0.55,0.19c0.01-0.11,0.03-0.22,0.05-0.33c0.1-0.75,0.17-1.5,0.24-2.25
			C405.41,366.11,405.57,366.37,405.79,366.58z M370.44,387.58c-0.11,0.17-0.23,0.34-0.34,0.51c-0.11-0.12-0.24-0.23-0.37-0.32
			c-0.45-0.32-1-0.48-1.56-0.46c-0.14-0.18-0.31-0.34-0.51-0.48c-0.2-0.1-0.39-0.21-0.59-0.31c-0.36-0.13-0.72-0.17-1.1-0.14
			c-0.03-0.05-0.07-0.1-0.11-0.14c-0.41-0.5-1.01-0.82-1.65-0.88c0.03-0.07,0.05-0.14,0.08-0.21c0.31,0.06,0.62,0.12,0.94,0.19
			c1.49,0.35,2.97,0.79,4.41,1.32c0.39,0.14,0.77,0.28,1.16,0.43C370.68,387.25,370.56,387.41,370.44,387.58z M343.98,391.54
			c0.33-0.74,0.67-1.48,0.99-2.23c0.04-0.09,0.08-0.17,0.11-0.26c0.51-0.49,1.03-0.98,1.56-1.46c-0.05,0.08-0.11,0.16-0.16,0.24
			c-0.37,0.54-0.73,1.08-1.1,1.62C344.92,390.15,344.45,390.84,343.98,391.54z M351.01,385.16c0.21-0.03,0.41-0.05,0.62-0.08
			c-0.02,0.02-0.03,0.04-0.05,0.06c-0.11,0.13-0.22,0.26-0.32,0.38c-0.05-0.11-0.12-0.22-0.2-0.32
			C351.04,385.19,351.03,385.18,351.01,385.16z M349.59,402.6c0.1,0.06,0.21,0.1,0.33,0.15c0.36,0.09,0.72,0.19,1.09,0.21
			c0.19,0.01,0.36,0,0.53-0.03c-0.65,0.13-1.3,0.27-1.94,0.42c-0.38,0.09-0.76,0.18-1.14,0.26
			C348.84,403.29,349.22,402.95,349.59,402.6z M352.49,402.66c0.36-0.13,0.67-0.39,0.99-0.6c0.3-0.19,0.56-0.46,0.81-0.71
			c0.54-0.52,1.12-1,1.68-1.5c0.22-0.2,0.44-0.4,0.66-0.6c0.2,0.07,0.41,0.11,0.64,0.14c0,0.16,0.01,0.32,0.03,0.48
			c0.07,0.42,0.34,1.09,0.64,1.4c0.12,0.13,0.25,0.26,0.38,0.38c-1.14,0.19-2.28,0.39-3.42,0.61c-1,0.2-2.01,0.39-3.02,0.6
			C352.07,402.81,352.28,402.74,352.49,402.66z M364.84,399.5c0.28,0.03,0.55,0.04,0.84-0.01c0.59-0.1,1.11-0.38,1.6-0.7
			c0.01,0,0.02,0.01,0.03,0.01c0.23,0.05,0.45,0.1,0.68,0.15c0.12,0.01,0.24,0.01,0.35,0.01c0.19,0.29,0.43,0.55,0.72,0.76
			c0.53,0.38,1.35,0.64,2.01,0.46c0.51-0.14,1.03-0.27,1.53-0.45c0.73,0.36,1.61,0.4,2.37,0.05c0.5-0.23,0.96-0.5,1.4-0.84
			c0.04-0.03,0.08-0.07,0.12-0.1c0.05,0.01,0.1,0.02,0.15,0.03c0.07,0.06,0.15,0.12,0.22,0.18c-0.04,0.45,0.04,0.88,0.22,1.3
			c0.08,0.18,0.18,0.34,0.3,0.5c-0.63-0.06-1.27-0.11-1.91-0.16c-1.03-0.07-2.06-0.1-3.09-0.13c-2.11-0.07-4.23,0.06-6.33,0.17
			c-0.87,0.05-1.75,0.12-2.62,0.2C363.95,400.48,364.41,400,364.84,399.5z M377.67,389.89c0.49,0.22,0.99,0.43,1.48,0.65
			c-0.09,0.05-0.17,0.09-0.26,0.14c-0.11-0.12-0.23-0.23-0.37-0.32c-0.26-0.19-0.56-0.32-0.87-0.39
			C377.66,389.94,377.67,389.92,377.67,389.89z M383.07,392.38c0.03,0.01,0.06,0.03,0.09,0.04c-0.02,0.01-0.05,0.02-0.07,0.03
			C383.09,392.43,383.08,392.41,383.07,392.38z M382.69,400.36c0.09-0.09,0.18-0.18,0.26-0.27c-0.11,0.36-0.22,0.73-0.31,1.09
			c-0.04,0.14-0.07,0.28-0.11,0.42c-0.04-0.01-0.08-0.02-0.11-0.02c-0.3-0.07-0.6-0.14-0.91-0.19
			C381.95,401.1,382.31,400.74,382.69,400.36z M440.62,338.92c0.26-0.48,0.52-0.97,0.77-1.45c0.21-0.4,0.42-0.81,0.62-1.22
			c0.16,0.1,0.33,0.18,0.51,0.23c0.22,0.25,0.48,0.46,0.75,0.65c0.02,0.01,0.03,0.02,0.05,0.03c-0.2,0.24-0.36,0.51-0.48,0.82
			c-0.16,0.44-0.2,0.9-0.12,1.36c0.04,0.25,0.12,0.49,0.23,0.71C442.2,339.62,441.42,339.24,440.62,338.92z M447.78,342.68
			c0,0.01,0,0.02,0,0.03c-0.05,0.53,0.07,0.99,0.27,1.47c-0.44-0.42-0.88-0.83-1.32-1.24C447.08,342.9,447.42,342.8,447.78,342.68z
			 M450.35,345.91c-0.02,0.2-0.02,0.4,0,0.6c-0.04-0.04-0.08-0.08-0.11-0.12c-0.2-0.23-0.41-0.44-0.63-0.66
			C449.85,345.81,450.1,345.87,450.35,345.91z M453.6,348.99c0.08-0.02,0.16-0.05,0.24-0.07c-0.01,0.03-0.03,0.07-0.04,0.1
			c-0.23,0.62-0.22,1.32,0.02,1.94c-0.19-0.29-0.39-0.57-0.59-0.86c-0.29-0.4-0.58-0.8-0.88-1.19
			C452.75,349.03,453.17,349.06,453.6,348.99z M454.74,352.19c-0.02,0.02-0.04,0.05-0.07,0.07c-0.06-0.1-0.12-0.19-0.19-0.29
			C454.57,352.05,454.65,352.12,454.74,352.19z M459.03,359.95c-0.07,0.05-0.15,0.11-0.22,0.16c-0.06,0.04-0.11,0.09-0.17,0.15
			c-0.03-0.12-0.07-0.24-0.1-0.37C458.71,359.93,458.87,359.95,459.03,359.95z M474.36,357.38c-0.77,0.62-1.58,1.2-2.37,1.79
			c-0.02-0.06-0.04-0.12-0.06-0.17c-0.05-0.11-0.11-0.22-0.18-0.32c0.16-0.14,0.32-0.27,0.48-0.41c0.27-0.23,0.53-0.45,0.8-0.68
			c0.43-0.36,0.87-0.72,1.27-1.11c0.26-0.24,0.49-0.5,0.73-0.77c0.14,0.26,0.28,0.53,0.42,0.79
			C475.09,356.8,474.72,357.09,474.36,357.38z M447.53,308.45c-0.03-0.71-0.07-1.42-0.13-2.13c0.16,0.18,0.34,0.35,0.51,0.47
			c0.41,0.29,0.85,0.4,1.34,0.44c0.61,0.05,1.22-0.14,1.7-0.52c0.18-0.15,0.36-0.34,0.5-0.56c0.26,0.35,0.58,0.65,0.96,0.86
			c0.13,0.09,0.27,0.17,0.41,0.23c-1.1,0.23-2.21,0.45-3.31,0.71C448.86,308.13,448.2,308.29,447.53,308.45z M489.77,286.2
			c0.23,0.62,0.46,1.24,0.68,1.86c-0.24,0.02-0.47,0.07-0.66,0.18c-0.37,0.22-0.74,0.43-1.1,0.66c-0.21,0.17-0.39,0.36-0.56,0.57
			c-0.12,0.14-0.23,0.28-0.33,0.44c-0.26,0.39-0.45,0.84-0.64,1.26c-0.02,0.05-0.04,0.1-0.06,0.14c0-0.35-0.01-0.7-0.08-1.03
			c0-0.36,0.01-0.72-0.01-1.08c-0.02-0.62-0.06-1.21-0.21-1.81c-0.08-0.33-0.18-0.63-0.33-0.92c-0.01-0.02-0.03-0.05-0.04-0.07
			C487.55,286.33,488.66,286.27,489.77,286.2z M481.69,286.74c-0.01-0.01-0.01-0.01-0.02-0.01c0.01,0,0.02,0,0.03,0
			C481.69,286.73,481.69,286.73,481.69,286.74z M467.92,289.62c-0.18,0.77-0.31,1.56-0.48,2.33c-0.03,0.15-0.06,0.29-0.1,0.44
			c-0.28-0.67-0.84-1.17-1.57-1.31c-0.01-0.26-0.01-0.52-0.02-0.78c0.12-0.04,0.24-0.08,0.36-0.12
			C466.71,289.99,467.31,289.8,467.92,289.62z M456.68,293.58c-0.16,1.05-0.28,2.1-0.4,3.15c-0.06,0.53-0.12,1.05-0.18,1.58
			c-0.11-0.48-0.21-0.97-0.26-1.46c-0.01-0.16-0.02-0.32-0.03-0.47c-0.07-0.4-0.23-0.76-0.49-1.08c-0.28-0.34-0.66-0.6-1.07-0.73
			C455.06,294.24,455.87,293.91,456.68,293.58z M459.81,306c0.01-0.13,0.01-0.26,0.02-0.38c0.03-0.37,0.06-0.73,0.08-1.09
			c0.23,0.19,0.49,0.33,0.74,0.42c0.4,0.14,0.81,0.18,1.22,0.11c0.38-0.07,0.72-0.21,1.03-0.43c0.52,0.37,1.1,0.45,1.72,0.39
			c0.44-0.05,0.92-0.24,1.27-0.52c0.47,0.35,1.18,0.45,1.74,0.35c0.31-0.05,0.59-0.16,0.85-0.32c0.07,0.09,0.15,0.18,0.23,0.26
			c-1.6,0.18-3.2,0.38-4.8,0.61C462.56,305.59,461.18,305.79,459.81,306z M472.89,303.26c0.01-0.04,0.01-0.08,0.02-0.12
			c0.26-0.02,0.52-0.09,0.77-0.2c0.38-0.18,0.7-0.43,0.95-0.78c0.09-0.1,0.18-0.2,0.28-0.31c0.17-0.22,0.31-0.46,0.41-0.72
			c0.06-0.11,0.11-0.23,0.16-0.35c0.1-0.01,0.2-0.02,0.3-0.04c0.29-0.06,0.58-0.15,0.85-0.26c0.09-0.05,0.17-0.11,0.26-0.16
			c0.05,0,0.09-0.01,0.14-0.02c0.13-0.02,0.25-0.05,0.37-0.1c0.04,0.13,0.09,0.25,0.14,0.37c0.16,0.4,0.59,0.9,0.94,1.15
			c0.24,0.15,0.49,0.27,0.75,0.38c0.4,0.14,0.82,0.18,1.24,0.11c0.01,0,0.02,0,0.03,0c0.17,0.6,0.37,1.19,0.76,1.69
			c0.05,0.07,0.1,0.12,0.16,0.19c-0.47,0-0.93,0-1.4,0c-0.9,0-1.8,0.03-2.7,0.07c-0.87,0.04-1.74,0.07-2.61,0.12
			c-0.74,0.05-1.48,0.1-2.22,0.15C472.69,304.09,472.82,303.7,472.89,303.26z M485.98,303.55c0.11-0.43,0.22-0.85,0.31-1.29
			c0.01,0,0.02,0,0.02,0c0.66,0.06,1.32-0.15,1.83-0.56c0.16,0.4,0.51,0.75,0.89,0.89c0.39,0.14,0.85,0.1,1.22-0.1
			c0.03,0.1,0.07,0.21,0.12,0.31c0.21,0.49,0.61,0.8,1.08,1c0.21,0.09,0.44,0.12,0.66,0.16c0.45,0.07,0.92-0.08,1.3-0.37
			c0.07,0.71,0.14,1.42,0.21,2.13c-0.82-0.31-1.67-0.56-2.52-0.76c-1-0.23-2-0.4-3.01-0.55c-0.82-0.12-1.64-0.17-2.46-0.22
			C485.79,304.01,485.92,303.79,485.98,303.55z M426.22,270.22c0.12-1.9,0.27-3.79,0.43-5.68c0.03-0.38,0.07-0.76,0.11-1.14
			c0.03,0.14,0.08,0.27,0.14,0.4c0.25,0.56,0.77,1.09,1.37,1.27c0.07,0.02,0.13,0.04,0.2,0.06c-0.11,0.2-0.22,0.41-0.32,0.61
			c-0.07,0.26-0.13,0.51-0.18,0.77c-0.02,0.25-0.01,0.51,0.04,0.77c-0.03,0.05-0.06,0.1-0.09,0.15c-0.26,0.37-0.41,0.78-0.45,1.24
			c-0.06,0.24-0.06,0.49-0.02,0.73c-0.09,0.1-0.17,0.2-0.26,0.31c-0.27,0.34-0.46,0.95-0.51,1.38c-0.03,0.33-0.04,0.65,0.05,0.97
			c0.06,0.21,0.12,0.41,0.19,0.61c0.09,0.19,0.19,0.37,0.32,0.53c0,0,0,0,0,0.01c-0.03,0.1-0.06,0.2-0.09,0.3
			c-0.1,0.15-0.19,0.32-0.26,0.5c-0.11,0.29-0.14,0.6-0.12,0.91c-0.26-0.14-0.53-0.27-0.8-0.41
			C426.01,273.08,426.12,271.64,426.22,270.22z M439.17,236.35c0.02,0.01,0.05,0.01,0.07,0.02c0.24,0.17,0.49,0.34,0.74,0.5
			c-0.01,0.03-0.02,0.06-0.04,0.09c-0.07,0.19-0.1,0.39-0.09,0.58c-0.7-0.04-1.39-0.07-2.09-0.11c-0.63-0.03-1.27-0.07-1.9-0.08
			c-0.23-0.01-0.45,0-0.68-0.01c-0.19-0.01-0.41-0.01-0.61,0c0.35-0.62,0.7-1.24,1.07-1.85c0.2,0.05,0.41,0.1,0.61,0.16
			c0.66,0.18,1.31,0.33,1.98,0.46C438.56,236.18,438.87,236.26,439.17,236.35z M432.86,241.3c-0.1,0.03-0.21,0.07-0.31,0.11
			c0.04-0.08,0.07-0.16,0.11-0.25C432.72,241.21,432.79,241.26,432.86,241.3z M431.51,244.52c0.23,0.27,0.51,0.47,0.84,0.6
			c0.15,0.07,0.31,0.15,0.46,0.22c-0.39,0.12-0.77,0.26-1.16,0.38c-0.46,0.15-0.84,0.64-1,1.08c-0.23,0.62-0.11,1.34,0.31,1.85
			c0.02,0.03,0.05,0.06,0.07,0.08c-0.18,0.09-0.34,0.2-0.48,0.31c-0.35,0.29-0.67,0.65-0.83,1.08c-0.16,0.43-0.14,0.88-0.08,1.33
			c0.02,0.13,0.05,0.26,0.1,0.38c-0.18,0.08-0.36,0.16-0.54,0.24c-0.15,0.06-0.3,0.12-0.44,0.19c-0.05,0.02-0.1,0.05-0.14,0.07
			c0.17-0.68,0.33-1.35,0.5-2.03c0.09-0.34,0.2-0.68,0.31-1.02c0.24-0.74,0.49-1.49,0.73-2.23c0.32-0.98,0.76-1.92,1.16-2.86
			C431.38,244.31,431.45,244.42,431.51,244.52z M428.37,257.67c0,0.01,0,0.01,0,0.02c-0.1,0.6,0.16,1.3,0.54,1.76
			c0.06,0.07,0.11,0.13,0.18,0.19c-0.16,0.1-0.32,0.19-0.48,0.29c0.06-0.04,0.12-0.08,0.19-0.11c-0.38,0.23-0.78,0.43-1.1,0.74
			c-0.32,0.27-0.56,0.6-0.71,0.98c0.1-0.81,0.22-1.62,0.34-2.42c0.09-0.59,0.18-1.17,0.28-1.75
			C427.83,257.52,428.09,257.63,428.37,257.67z M442.35,256.97c0.2-0.55,0.18-1.16-0.06-1.69c-0.04-0.08-0.07-0.15-0.12-0.22
			c0.44-0.13,0.87-0.27,1.3-0.41c0.52-0.17,1.04-0.34,1.56-0.5c-0.03,0.03-0.05,0.06-0.08,0.09c-0.67,0.78-1.31,1.6-1.96,2.4
			c-0.52,0.64-1.02,1.29-1.52,1.93c-0.68,0.87-1.35,1.74-2.01,2.62c-0.07-0.59-0.38-1.12-0.85-1.51c0.18-0.09,0.35-0.19,0.53-0.28
			c0.32-0.17,0.65-0.32,0.97-0.47c0.23-0.11,0.44-0.23,0.66-0.35c0.32-0.19,0.63-0.36,0.89-0.63
			C441.97,257.68,442.2,257.36,442.35,256.97z M431.74,275.02c0-0.01,0-0.02,0.01-0.03l0,0C431.74,275,431.74,275.01,431.74,275.02z
			 M437.54,263.87c-0.17,0.25-0.34,0.49-0.5,0.75c-0.07-0.08-0.15-0.17-0.24-0.24C437.04,264.21,437.29,264.04,437.54,263.87z
			 M430.55,276.68c0.32-0.15,0.59-0.36,0.82-0.62c-0.16,0.46-0.31,0.92-0.47,1.38c-0.29-0.2-0.58-0.41-0.88-0.6
			C430.2,276.79,430.37,276.73,430.55,276.68z M452.56,246.12c-0.25,0.21-0.47,0.46-0.7,0.68c-0.48,0.47-0.96,0.94-1.44,1.41
			c-0.38,0.37-0.74,0.75-1.1,1.14c-0.02-0.02-0.03-0.04-0.05-0.06c-0.49-0.6-1.33-0.96-2.1-0.79c-0.27,0.06-0.55,0.11-0.83,0.17
			c0.29-0.23,0.52-0.53,0.66-0.9c0.1-0.28,0.14-0.59,0.11-0.89c0.46-0.15,0.92-0.31,1.38-0.48c0.54-0.2,1.05-0.45,1.57-0.68
			c0.58-0.26,0.98-0.83,1.04-1.46c0.01-0.09,0.01-0.18,0-0.27c0.31-0.2,0.59-0.44,0.87-0.68c0.01-0.01,0.03-0.02,0.04-0.04
			c0.03,0.01,0.05,0.02,0.08,0.03c0.87,0.34,1.75,0.64,2.65,0.92C454.02,244.85,453.29,245.48,452.56,246.12z M438.44,232.75
			c-0.24,0.27-0.4,0.59-0.55,0.92c-0.14,0.33-0.16,0.7-0.08,1.04c-0.23-0.04-0.46-0.08-0.7-0.12c-0.28-0.05-0.56-0.09-0.83-0.14
			c0.4-0.66,0.81-1.31,1.23-1.95c0.01,0,0.03,0.01,0.04,0.01C437.85,232.59,438.15,232.67,438.44,232.75z M377.22,242.55
			c0.11,0.48,0.24,0.96,0.37,1.43c-0.14-0.06-0.3-0.1-0.46-0.1c-0.06,0-0.12,0-0.17,0c0.09-0.24,0.11-0.49,0.04-0.75
			c-0.05-0.26-0.15-0.5-0.32-0.7c-0.09-0.11-0.19-0.2-0.3-0.28c-0.11-0.08-0.23-0.14-0.36-0.19c-0.52-0.19-1.04-0.07-1.48,0.25
			c-0.31,0.23-0.6,0.46-0.89,0.71c-0.11,0.07-0.21,0.14-0.32,0.21c-0.04-0.01-0.09-0.02-0.13-0.02c-0.04-0.01-0.08-0.01-0.12-0.01
			c0.02-0.03,0.04-0.06,0.06-0.09c0.33-0.47,0.55-0.97,0.74-1.51c0.07-0.19,0.06-0.41,0.01-0.61c0.88-0.52,1.76-1.03,2.65-1.52
			c0.02-0.01,0.05-0.02,0.07-0.04C376.77,240.4,376.96,241.48,377.22,242.55z M368.12,244.9c-0.18,0.38-0.32,0.77-0.43,1.18
			c-0.06-0.22-0.12-0.43-0.18-0.65C367.71,245.25,367.92,245.07,368.12,244.9z M369.36,247.93c0.05-0.02,0.1-0.05,0.15-0.07
			c0,0.1,0.01,0.2,0.02,0.3c0.01,0.08,0.02,0.15,0.04,0.23c0.04,0.23,0.12,0.44,0.24,0.63c-0.08,0.13-0.15,0.26-0.18,0.38
			c-0.08,0.32-0.15,0.63-0.18,0.96c-0.04,0.45,0.1,0.91,0.39,1.26c0.11,0.11,0.23,0.21,0.34,0.32c0.03,0.02,0.05,0.04,0.08,0.05
			c-0.02,0.17-0.03,0.34-0.04,0.51c0,0.04,0,0.07,0,0.11c-0.75-1.54-1.43-3.13-1.98-4.76C368.56,248.05,368.97,248.11,369.36,247.93
			z M371.54,254.42c-0.08,0.14-0.13,0.29-0.18,0.44c-0.12-0.22-0.23-0.44-0.35-0.66c0.12,0.09,0.26,0.15,0.4,0.19
			C371.45,254.39,371.5,254.41,371.54,254.42z M374.8,259.04c0.08,0.01,0.17,0.03,0.25,0.04c0.18,0.7,0.64,1.28,1.23,1.7
			c-0.18,0.45-0.25,0.99-0.15,1.46c0.01,0.05,0.03,0.1,0.04,0.15c-0.96-1.28-1.85-2.6-2.71-3.95
			C373.83,258.78,374.29,258.96,374.8,259.04z M381.74,267.41c0,0,0.01,0.01,0.01,0.01c-0.09,0.27-0.15,0.54-0.18,0.82
			c-0.28-0.23-0.55-0.47-0.82-0.71c0.07,0,0.13-0.01,0.2-0.01C381.22,267.51,381.48,267.47,381.74,267.41z M391.41,275.35
			c0.07,0.1,0.14,0.2,0.22,0.3c-0.14-0.08-0.27-0.16-0.41-0.25C391.29,275.38,391.35,275.36,391.41,275.35z M400.05,274.7
			c0.05-0.21,0.06-0.42,0.06-0.64c0.2,0.11,0.4,0.22,0.61,0.32C400.49,274.49,400.26,274.59,400.05,274.7z M385.48,260.97
			c-0.08-0.24-0.21-0.46-0.37-0.66c-0.31-0.39-0.7-0.6-1.14-0.73c0.01-0.03,0.03-0.06,0.04-0.09c0.12-0.33,0.15-0.68,0.11-1.03
			c0.34,0.55,0.69,1.1,1.05,1.64c0.2,0.31,0.41,0.61,0.61,0.92C385.68,261,385.58,260.98,385.48,260.97z M383.13,256.83
			C383.13,256.83,383.13,256.83,383.13,256.83C383.13,256.83,383.14,256.84,383.13,256.83
			C383.13,256.84,383.13,256.83,383.13,256.83z M380.55,253.31c-0.24,0.12-0.49,0.22-0.74,0.32c-0.03-0.1-0.07-0.21-0.11-0.3
			c-0.05-0.1-0.1-0.2-0.16-0.29c0.3-0.22,0.6-0.44,0.91-0.65c0.09-0.05,0.17-0.1,0.25-0.15c0.01,0.03,0.03,0.06,0.04,0.09
			c0.12,0.28,0.27,0.55,0.41,0.82C380.95,253.16,380.74,253.22,380.55,253.31z M379.16,248.8c-0.48,0.25-0.94,0.52-1.4,0.8
			c-0.02,0.01-0.04,0.01-0.06,0.02c0.09-0.1,0.17-0.19,0.26-0.28c0.17-0.24,0.27-0.51,0.3-0.81c0.04-0.42-0.09-0.86-0.36-1.19
			c-0.07-0.08-0.14-0.16-0.23-0.23c0.12-0.11,0.23-0.23,0.34-0.35c0.12-0.1,0.23-0.22,0.32-0.35c0,0,0,0,0,0.01
			c0.26,0.79,0.54,1.59,0.86,2.36C379.19,248.79,379.18,248.79,379.16,248.8z M344.5,265.03c0.69-1.3,1.43-2.56,2.23-3.79
			c-1.4,3.46-2.46,7.06-3.78,10.56c-0.57,1.51,0.27,3.24,1.77,3.79c0.72,0.26,1.53,0.23,2.23-0.08c0.22-0.13,0.43-0.27,0.65-0.4
			c0.42-0.34,0.72-0.77,0.91-1.28c1.19-2.39,2.39-4.78,3.51-7.21c1.23-2.66,2.44-5.34,3.78-7.95c1.01-1.83,2.19-3.51,3.53-5.12
			c0.55-0.66,1.12-1.29,1.69-1.93c1.33-1.37,2.7-2.69,4.09-4c0.61,2.05,1.4,4.03,2.31,5.97c1.01,2.15,2.17,4.21,3.42,6.23
			c1.23,1.99,2.55,3.93,3.98,5.77c1.44,1.84,3.06,3.52,4.81,5.06c0.83,0.73,1.7,1.41,2.56,2.1c1.24,0.99,2.52,1.93,3.79,2.88
			c0.66,0.49,1.33,0.95,2.01,1.4c0.68,0.45,1.38,0.88,2.12,1.24c0.99,0.47,2.1,0.66,3.19,0.72c0.54,0.03,1.05-0.25,1.3-0.7
			c0.03,0.01,0.05,0.03,0.08,0.04c0.02,0.13,0.06,0.26,0.12,0.38c0.01,0.01,0.02,0.02,0.02,0.04c-0.29,0.32-0.57,0.64-0.84,0.96
			c-1.08,1.27-2.11,2.58-3.03,3.98c-1,1.53-1.83,3.17-2.56,4.84c-0.28,0.63-0.51,1.28-0.76,1.92c-0.19,0.49-0.41,0.99-0.57,1.49
			c-0.76,2.35-1.51,4.69-2.15,7.07c-0.03,0.12-0.07,0.25-0.1,0.37c-0.29-0.1-0.6-0.14-0.88-0.07c-0.53,0.13-1.06,0.19-1.6,0.22
			c-2.3,0.06-4.6-0.03-6.9-0.18c-1.17-0.08-2.33-0.18-3.5-0.31c-0.66-0.07-1.31-0.14-1.96-0.2c-1.27-0.13-2.54-0.36-3.79-0.62
			c-2.75-0.64-5.38-1.62-7.9-2.89c-3.13-1.69-5.99-3.77-8.61-6.17c-2.06-1.97-3.96-4.13-5.5-6.54c-0.47-0.81-0.87-1.63-1.2-2.51
			c-0.3-0.81-0.55-1.63-0.81-2.46c-0.1-0.36-0.2-0.72-0.3-1.08c-0.05-0.16-0.1-0.32-0.15-0.48c-0.15-0.32-0.36-0.59-0.65-0.8
			c-0.19-0.14-0.41-0.23-0.63-0.29c0.09-0.26,0.17-0.53,0.26-0.79c0.35-1.1,0.76-2.16,1.18-3.23c0.24-0.63,0.48-1.25,0.73-1.88
			C343.13,267.71,343.81,266.36,344.5,265.03z M383.54,304.15c-0.03-0.03-0.06-0.06-0.1-0.08c-0.32-0.23-0.69-0.39-1.09-0.39
			c-0.23,0-0.47,0.01-0.7,0.02c-0.22,0.04-0.49,0.13-0.74,0.24c-0.22-0.17-0.48-0.3-0.75-0.37c0.4,0,0.81-0.01,1.21-0.04
			c0.34-0.03,0.69-0.05,1.03-0.08c0.39-0.03,0.8-0.12,1.18-0.23c0.07-0.02,0.14-0.04,0.21-0.07
			C383.71,303.49,383.63,303.82,383.54,304.15z M371.54,304.3c-0.15-0.31-0.35-0.56-0.65-0.78c-0.22-0.17-0.48-0.29-0.74-0.41
			c-0.34-0.12-0.68-0.15-1.03-0.09c-0.35,0.06-0.64,0.2-0.9,0.41c-0.09-0.33-0.26-0.63-0.5-0.87c0.65,0.11,1.3,0.21,1.95,0.28
			c0.96,0.1,1.93,0.21,2.89,0.32C372.11,303.4,371.76,303.83,371.54,304.3z M352.98,296.87c-0.12,0.06-0.24,0.12-0.35,0.2
			c-0.39-0.42-0.93-0.68-1.5-0.73c-0.03,0-0.07-0.01-0.1-0.01c0.04-0.18,0.08-0.37,0.1-0.56c0-0.1-0.01-0.2-0.02-0.3
			c0.64,0.47,1.29,0.93,1.96,1.37C353.04,296.84,353.01,296.85,352.98,296.87z M345.03,290.21c-0.3-0.59-0.89-1.02-1.58-1.08
			c-0.27-0.02-0.55,0.01-0.81,0.1c-0.01-0.23-0.02-0.45-0.04-0.68c-0.01-0.19-0.02-0.39-0.04-0.58c-0.02-0.33-0.07-0.65-0.14-0.97
			c0.37,0.48,0.74,0.95,1.13,1.41c0.53,0.63,1.08,1.25,1.65,1.84C345.15,290.24,345.09,290.22,345.03,290.21z M340.35,284.89
			c-0.12-0.02-0.25-0.02-0.39,0c0-0.01-0.01-0.02-0.01-0.03c-0.07-0.2-0.13-0.37-0.22-0.54c0,0,0,0,0-0.01
			c0.17-0.24,0.19-0.48,0.18-0.77c-0.01-0.26-0.05-0.51-0.1-0.76c0.02,0.04,0.03,0.08,0.05,0.12c0.34,0.75,0.79,1.45,1.22,2.15
			C340.85,284.97,340.6,284.94,340.35,284.89z M338.61,281.58c0.01-0.04,0.02-0.08,0.03-0.12c0.09-0.37,0.19-0.73,0.28-1.1
			c0.08,0.26,0.16,0.51,0.24,0.77c0.08,0.25,0.17,0.5,0.27,0.74C339.22,281.66,338.92,281.55,338.61,281.58z M343.91,297.75
			c0.04-0.02,0.08-0.04,0.11-0.06c0.04,0.03,0.09,0.07,0.13,0.1c0.34,0.27,0.8,0.41,1.27,0.43c0.06,0.11,0.12,0.21,0.19,0.32
			c-0.02,0.1-0.04,0.2-0.06,0.3c-0.1,0.47-0.05,0.93-0.02,1.41c0,0.02,0.01,0.04,0.01,0.06c-0.14-0.13-0.28-0.25-0.42-0.38
			c-0.67-0.64-1.3-1.3-1.92-1.99C343.45,297.93,343.69,297.87,343.91,297.75z M352.74,305.2c0.26-0.11,0.5-0.24,0.72-0.4
			c0.46,0.32,0.94,0.39,1.47,0.5c0.22,0.05,0.56,0.01,0.88-0.06c0.35,0.73,0.96,1.34,1.74,1.62c0.53,0.19,1.1,0.19,1.63,0.03
			c0.07,0.1,0.15,0.2,0.24,0.3c0.43,0.47,1.06,0.92,1.73,0.92c0.07,0,0.14,0,0.21,0c0.35,0.03,0.69-0.01,1.01-0.12
			c0.43,0.45,1.02,0.78,1.64,0.83c0.06,0.01,0.12,0.01,0.18,0.01c0.35,0.99,1.18,1.85,2.28,1.94c0.4,0.03,0.79-0.03,1.16-0.16
			c0.01,0.1,0.01,0.2,0.02,0.3c0.04,0.13,0.08,0.26,0.12,0.4c-0.95-0.12-1.89-0.28-2.82-0.47c-2.57-0.61-5.09-1.54-7.44-2.75
			c-0.92-0.47-1.83-0.94-2.75-1.41c-0.79-0.46-1.57-0.91-2.36-1.37C352.52,305.28,352.63,305.24,352.74,305.2z M372.9,311.45
			c0.12-0.17,0.23-0.35,0.33-0.54c0.07,0.04,0.14,0.07,0.22,0.09c0.77,0.28,1.54,0.1,2.19-0.37c0.24-0.17,0.56-0.44,0.7-0.68
			c0.01-0.02,0.03-0.04,0.04-0.07c0.02,0.01,0.05,0.02,0.07,0.03c0.5,0.22,1.16,0.18,1.68,0.01c0.1,0.11,0.21,0.22,0.34,0.32
			c-0.16,0.05-0.31,0.1-0.47,0.15c-0.52,0.14-1.04,0.29-1.56,0.43C375.28,311.14,374.09,311.33,372.9,311.45z M377.67,303.53
			c0.43,0.02,0.87,0.05,1.3,0.05c0.04,0,0.09,0,0.13,0c-0.11,0.03-0.21,0.06-0.31,0.11c-0.24,0.11-0.45,0.26-0.63,0.45
			C378.03,303.9,377.86,303.7,377.67,303.53z M378.79,322.06c-0.47,0.84-0.99,1.63-1.62,2.36c-0.51,0.49-1.05,0.92-1.65,1.31
			c-1.6,0.94-3.28,1.69-5.05,2.26c-1.76,0.49-3.55,0.8-5.37,0.92c-1.74,0.03-3.48-0.16-5.19-0.51c-1.6-0.39-3.15-0.95-4.63-1.68
			c-1.5-0.84-2.87-1.84-4.16-3c-0.61-0.55-1.22-1.1-1.83-1.65c-0.93-0.9-1.81-1.83-2.66-2.8c-1.01-1.17-1.92-2.41-2.78-3.69
			c-0.51-0.75-0.97-1.53-1.44-2.29c0.05,0.08,0.11,0.17,0.16,0.25c-0.46-0.84-0.92-1.68-1.38-2.52c-1.01-1.84-1.77-3.83-2.41-5.84
			c-0.26-0.88-0.51-1.76-0.68-2.66c-0.12-0.62-0.25-1.25-0.37-1.87c-0.25-1.29-0.45-2.58-0.58-3.88c0.34,0.53,0.69,1.05,1.06,1.55
			c0.8,1.11,1.72,2.12,2.66,3.11c1.94,2.04,4.11,3.87,6.42,5.48c1.22,0.85,2.48,1.6,3.77,2.34c0.83,0.48,1.66,0.95,2.51,1.39
			c1.06,0.54,2.11,1.1,3.18,1.61c1.16,0.54,2.33,1.03,3.54,1.46c1.39,0.49,2.8,0.85,4.24,1.16c2.37,0.5,4.8,0.72,7.21,0.62
			c2.24-0.09,4.47-0.49,6.55-1.33c0.82-0.33,1.61-0.68,2.37-1.13c0.3-0.18,0.59-0.36,0.88-0.54c-0.13,0.61-0.26,1.22-0.39,1.83
			C380.57,316.96,379.98,319.6,378.79,322.06z M418,271.86c-1.77-0.31-3.6-0.32-5.39-0.23c-2.51,0.12-4.99,0.52-7.41,1.17
			c-0.18-0.19-0.36-0.37-0.56-0.54c-0.38-0.33-0.78-0.63-1.21-0.9c-0.5-0.31-1-0.61-1.51-0.91c-0.96-0.57-1.89-1.2-2.81-1.84
			c-0.9-0.63-1.77-1.29-2.63-1.96c-0.9-0.71-1.78-1.44-2.66-2.18c-0.7-0.66-1.39-1.31-2.03-2.02c-0.4-0.44-0.83-0.87-1.21-1.34
			c-0.47-0.59-0.94-1.18-1.42-1.78c-0.73-0.92-1.38-1.9-2.05-2.86c-0.27-0.38-0.49-0.78-0.74-1.18c-0.27-0.43-0.53-0.86-0.8-1.29
			c-0.65-1.2-1.35-2.37-1.93-3.61c-0.41-0.89-0.83-1.77-1.24-2.65c-0.65-1.4-1.17-2.88-1.63-4.35c-0.42-1.42-0.76-2.84-1.01-4.3
			c-0.08-0.44-0.13-0.88-0.19-1.33c0.89-0.44,1.8-0.85,2.72-1.21c1.97-0.77,3.97-1.44,5.99-2.1c1.91-0.63,3.81-1.26,5.73-1.86
			c0.69-0.19,1.39-0.38,2.08-0.57c0.8-0.22,1.62-0.37,2.43-0.56c0.81-0.18,1.63-0.3,2.45-0.44c0.74-0.13,1.49-0.23,2.24-0.34
			c2.97-0.44,5.95-0.66,8.94-0.83c0.79-0.02,1.57-0.04,2.36-0.06c0.87-0.02,1.76,0.03,2.63,0.05c1.84,0.04,3.7,0.2,5.54,0.32
			c1.66,0.11,3.31,0.26,4.96,0.45c0.86,0.1,1.73,0.17,2.58,0.31c0.98,0.16,1.96,0.33,2.94,0.49c0.43,0.1,0.86,0.21,1.28,0.31
			c-0.87,1.37-1.71,2.75-2.5,4.17c-1.14,2.04-2.2,4.14-3.14,6.28c-0.49,1.12-0.99,2.23-1.48,3.34c-0.12,0.27-0.21,0.57-0.31,0.85
			c-0.25,0.7-0.5,1.39-0.75,2.09c-0.32,0.88-0.54,1.8-0.79,2.71c-0.23,0.84-0.46,1.68-0.66,2.54c-0.27,1.16-0.57,2.31-0.79,3.48
			c-0.21,1.11-0.43,2.21-0.64,3.32c-0.12,0.62-0.2,1.24-0.29,1.86c-0.09,0.57-0.18,1.13-0.26,1.71c-0.2,1.54-0.39,3.09-0.56,4.63
			c-0.15,1.28-0.29,2.55-0.43,3.83c-0.01,0.08-0.02,0.16-0.03,0.24C420.58,272.38,419.3,272.08,418,271.86z M434.38,280.32
			c0.36-1.41,0.75-2.8,1.19-4.18c0.45-1.4,0.94-2.77,1.46-4.14c0.48-1.26,1.07-2.48,1.65-3.7c0.34-0.64,0.67-1.3,1.06-1.92
			c0.47-0.76,0.93-1.55,1.43-2.29c0.57-0.85,1.14-1.69,1.71-2.53c0.56-0.82,1.16-1.61,1.74-2.42c0.48-0.66,0.98-1.31,1.47-1.95
			c0.48-0.64,0.97-1.27,1.47-1.89c0.4-0.49,0.8-0.98,1.19-1.46c0.23-0.28,0.46-0.58,0.7-0.86c0.7-0.79,1.4-1.57,2.11-2.36
			c0.05-0.05,0.09-0.1,0.14-0.16c0.8-0.81,1.6-1.61,2.39-2.42c0.13-0.13,0.28-0.25,0.42-0.37c0.3-0.27,0.61-0.54,0.91-0.81
			c0.29-0.26,0.59-0.52,0.88-0.78c0.11-0.1,0.22-0.21,0.34-0.3c0.37-0.28,0.73-0.55,1.1-0.83c0.43,0.07,0.87,0.11,1.32,0.11
			c0.43,0.01,0.86-0.03,1.28-0.14c0.32-0.09,0.59-0.2,0.86-0.4c0.06-0.04,0.11-0.09,0.17-0.14c1.86,1.46,3.61,3.05,5.35,4.66
			c0.8,0.83,1.61,1.66,2.41,2.49c0.41,0.42,0.77,0.91,1.15,1.35c0.34,0.4,0.71,0.78,1.02,1.2c0.39,0.53,0.79,1.06,1.18,1.59
			c0.31,0.42,0.65,0.83,0.94,1.26c0.66,0.99,1.33,1.98,1.99,2.98c1.09,1.79,2.19,3.57,3.28,5.36c0.66,1.09,1.33,2.17,1.99,3.26
			c0.66,1.1,1.35,2.18,1.99,3.29c0.65,1.14,1.31,2.27,1.96,3.41c0.62,1.07,1.16,2.19,1.74,3.28c0.29,0.54,0.53,1.11,0.8,1.66
			c0.24,0.5,0.5,1,0.72,1.52c0.18,0.42,0.36,0.84,0.55,1.26c-0.27,0-0.55,0-0.82,0c-1.81-0.01-3.62-0.03-5.43,0.05
			c-0.98,0.04-1.95,0.1-2.93,0.18c-0.85,0.07-1.7,0.2-2.54,0.32c-0.47,0.06-0.94,0.18-1.4,0.27c-0.35,0.07-0.69,0.14-1.03,0.22
			c-0.86,0.21-1.72,0.41-2.58,0.64c-1.01,0.28-2.04,0.55-3.04,0.86c-1.06,0.33-2.13,0.67-3.19,1c-1.71,0.54-3.4,1.15-5.1,1.74
			c-0.84,0.29-1.68,0.59-2.52,0.88c-0.51,0.18-1,0.41-1.5,0.61c-2.29,0.93-4.59,1.86-6.88,2.8c-1.74,0.71-3.45,1.46-5.17,2.2
			c-1.24-2.91-2.75-5.69-4.57-8.28C438.17,284.25,436.36,282.18,434.38,280.32z M445.62,298.17c0.33-0.14,0.67-0.29,1-0.43
			c-0.09,0.26-0.19,0.6-0.21,0.85c-0.02,0.35,0,0.7,0.02,1.05c0.02,0.3,0.08,0.6,0.12,0.89c0.02,0.17,0.04,0.33,0.06,0.5
			c-0.03,0.03-0.06,0.06-0.09,0.09C446.27,300.13,445.96,299.14,445.62,298.17z M447.23,317.7c0.05-0.33,0.07-0.65,0.09-0.98
			c0.06-0.89,0.12-1.77,0.18-2.66c0.05-0.82,0.08-1.64,0.09-2.46c0.34-0.08,0.68-0.17,1.03-0.25c0.76-0.18,1.51-0.37,2.28-0.53
			c1.11-0.23,2.23-0.46,3.34-0.7c0.49-0.1,0.98-0.19,1.47-0.27c0.54,0.31,1.1,0.47,1.73,0.36c0.59-0.1,1.15-0.43,1.53-0.9
			c2.93-0.46,5.87-0.83,8.82-1.18c2.53-0.3,5.09-0.44,7.63-0.56c1.29-0.04,2.58-0.06,3.88-0.07c1.34-0.01,2.69,0.05,4.03,0.1
			c2.43,0.1,4.83,0.4,7.21,0.9c0.71,0.17,1.42,0.4,2.11,0.64c0.44,0.15,0.87,0.31,1.3,0.48c0.08,1.13,0.15,2.25,0.22,3.38
			c0.06,1.43,0.11,2.85,0.09,4.28c-0.01,1.05-0.01,2.11-0.06,3.16c-0.12,2.37-0.4,4.71-0.84,7.04c-0.31,1.36-0.63,2.71-1.02,4.05
			c-0.27,0.9-0.52,1.81-0.81,2.7c-0.74,2.24-1.59,4.43-2.66,6.53c-0.85,1.55-1.84,3.01-2.9,4.43c-0.61,0.81-1.19,1.63-1.83,2.42
			c-0.72,0.89-1.44,1.79-2.17,2.68c-0.55,0.68-1.15,1.32-1.74,1.97c-0.45,0.44-0.9,0.89-1.36,1.33c-0.01,0.01-0.02,0.01-0.02,0.02
			c-0.31-0.65-0.65-1.29-1.02-1.92c-0.34-0.58-0.66-1.2-1.05-1.76c-0.34-0.48-0.67-0.96-1.01-1.43c-0.23-0.32-0.48-0.62-0.73-0.92
			c-0.45-0.54-0.9-1.09-1.38-1.61c-1.61-1.76-3.42-3.35-5.36-4.73c-0.49-0.35-0.99-0.68-1.5-1.01c-1.36-0.86-2.77-1.6-4.19-2.35
			c-0.9-0.48-1.79-0.96-2.71-1.4c-1.09-0.52-2.17-1.04-3.26-1.56c-1-0.47-2.02-0.9-3.03-1.35c-0.75-0.33-1.49-0.67-2.25-0.99
			c-2.22-0.96-4.44-1.91-6.67-2.86c0.81-2.52,1.4-5.11,1.88-7.71C446.85,320.59,447.02,319.14,447.23,317.7z M425.22,352.33
			c0.79-0.31,1.57-0.65,2.33-1.02c1.01-0.48,1.95-1.07,2.9-1.66c1.46-0.9,2.82-1.96,4.11-3.09c1.26-1.1,2.44-2.31,3.47-3.62
			c0.71,0.21,1.38,0.5,2.04,0.83c1.25,0.7,2.36,1.57,3.43,2.51c0.65,0.61,1.3,1.23,1.92,1.87c0.35,0.36,0.71,0.72,1.05,1.1
			c0.4,0.45,0.83,0.88,1.19,1.36c0.37,0.48,0.73,0.95,1.1,1.43c0.35,0.45,0.66,0.94,0.99,1.41c0.55,0.78,1.05,1.6,1.56,2.41
			c0.89,1.44,1.76,2.89,2.59,4.37c0.45,0.8,0.83,1.63,1.22,2.46c0.41,0.88,0.77,1.78,1.08,2.69c0.02,0.06,0.05,0.11,0.08,0.17
			c-0.09,0.48-0.18,0.97-0.27,1.45c-0.01,0.04-0.01,0.07-0.01,0.11c-0.29,0.1-0.59,0.2-0.88,0.29c-2.25,0.6-4.49,1.19-6.76,1.68
			c-2.39,0.51-4.77,1.07-7.18,1.49c-2.43,0.43-4.85,0.87-7.3,1.17c-2.49,0.31-4.97,0.61-7.45,0.98c-0.19,0.03-0.39,0.06-0.58,0.09
			c0.03-0.26,0.07-0.51,0.09-0.77c0.08-0.83,0.05-1.68,0-2.51c-0.11-2.15-0.87-4.2-1.52-6.24c-0.13-0.41-0.29-0.8-0.44-1.2
			c-0.24-0.63-0.47-1.26-0.72-1.88c-0.62-1.52-1.32-3-2.09-4.45c-0.32-0.6-0.67-1.17-1.04-1.73c0.31-0.09,0.61-0.19,0.92-0.28
			C422.46,353.33,423.86,352.86,425.22,352.33z M349.24,375.87c0.96-1.23,1.91-2.44,2.95-3.6c0.83-0.86,1.71-1.68,2.63-2.44
			c1.03-0.85,2.15-1.6,3.28-2.31c2.12-1.28,4.34-2.41,6.58-3.46c0.95-0.45,1.88-0.88,2.85-1.27c1.58-0.64,3.16-1.26,4.78-1.78
			c1.7-0.49,3.43-0.85,5.18-1.1c0.96-0.14,1.93-0.23,2.89-0.33c1.37-0.14,2.74-0.21,4.12-0.29c1.03-0.04,2.07-0.08,3.1-0.12
			c1.42-0.05,2.84-0.07,4.26-0.16c1.22-0.07,2.45-0.14,3.67-0.22c1.22-0.07,2.44-0.23,3.66-0.34c0.85-0.08,1.7-0.2,2.55-0.32
			c-0.01,0.28-0.01,0.56-0.02,0.84c-0.04,0.96-0.05,1.92-0.11,2.87c-0.06,0.93-0.09,1.86-0.19,2.79c-0.1,0.98-0.19,1.95-0.32,2.92
			c-0.14,1.03-0.29,2.05-0.44,3.08c-0.09,0.61-0.18,1.22-0.28,1.84c-0.06,0.09-0.12,0.18-0.16,0.28c-0.61,1.53-1.23,3.07-1.84,4.6
			c-0.51,1.27-1.02,2.54-1.36,3.87c-1.06,0.52-2.1,1.12-3.09,1.75c-1.48,0.94-2.85,1.97-4.06,3.24c-0.65,0.68-1.24,1.38-1.78,2.15
			c-0.4,0.58-0.77,1.19-1.11,1.8c-1.37-0.84-2.82-1.56-4.28-2.24c-1.87-0.86-3.76-1.67-5.66-2.44c-1.82-0.74-3.67-1.41-5.53-2.05
			c-1.87-0.65-3.77-1.19-5.71-1.6c-1.32-0.28-2.66-0.47-4-0.59c-1.49-0.13-2.99-0.11-4.48-0.06c-4.2,0.14-8.36,0.76-12.49,1.55
			c0.79-1.43,1.59-2.85,2.52-4.19C347.98,377.64,348.57,376.72,349.24,375.87z M349.74,435.99c-0.68-0.4-1.32-0.84-1.92-1.36
			c-0.56-0.54-1.12-1.09-1.68-1.63c-1.23-1.2-2.3-2.52-3.23-3.95c-1.31-2.22-2.36-4.58-3.15-7.04c-0.84-2.92-1.27-5.93-1.43-8.96
			c-0.02-0.93-0.02-1.85,0-2.77c0.37-0.13,0.75-0.26,1.12-0.39c1.81-0.53,3.63-1.07,5.44-1.6c0.27-0.08,0.56-0.12,0.83-0.18
			c0.68-0.15,1.36-0.3,2.04-0.46c1.01-0.23,2.03-0.45,3.04-0.68c0.99-0.22,1.99-0.37,2.99-0.56c0.78-0.15,1.56-0.3,2.35-0.43
			c1.1-0.18,2.19-0.36,3.29-0.55c1.02-0.17,2.04-0.29,3.06-0.44c0.48-0.07,0.97-0.09,1.46-0.13c0.65-0.06,1.31-0.12,1.96-0.18
			c0.49-0.05,0.99-0.05,1.48-0.08c0.5-0.03,1-0.05,1.51-0.08c1.1-0.02,2.19-0.06,3.29-0.05c1.38,0.02,2.74,0.06,4.12,0.12
			c1.79,0.08,3.58,0.23,5.35,0.49c-0.26,1.13-0.52,2.26-0.78,3.38c-0.58,2.45-1.21,4.88-1.84,7.32c-1.24,4.77-2.44,9.63-4.69,14.04
			c-0.7,1.3-1.48,2.54-2.44,3.65c-0.43,0.4-0.88,0.76-1.36,1.09c-1.31,0.72-2.69,1.25-4.11,1.69c-2.37,0.68-4.77,1.21-7.23,1.35
			c-2.16,0.04-4.33-0.15-6.45-0.57C351.72,436.79,350.71,436.45,349.74,435.99z"/>
		<path class="st1" d="M383.98,494.02c0.7-2.79,1-5.68,0.98-8.55c-0.01-1.25-0.12-2.49-0.29-3.72c0.94-0.27,1.87-0.58,2.78-0.96
			c0.95-0.39,1.49-1.49,1.32-2.48c-0.1-0.6-0.44-1.14-0.94-1.49c-0.18-0.1-0.36-0.19-0.55-0.29c-0.38-0.14-0.77-0.17-1.17-0.11
			c-0.88,0.05-1.76,0.14-2.64,0.23c-0.01-0.05-0.03-0.09-0.04-0.14c-0.89-2.83-2.53-5.39-4.24-7.78c-0.84-1.18-1.76-2.29-2.78-3.33
			c-0.84-0.86-1.75-1.62-2.72-2.31c-0.38-0.27-0.78-0.53-1.18-0.78c-1.32-0.81-2.71-1.5-4.15-2.07c-1.48-0.58-3.04-0.95-4.59-1.28
			c-1.73-0.37-3.5-0.55-5.26-0.52c-0.28-0.08-0.57-0.15-0.86-0.21c-1.44-0.3-2.9-0.33-4.37-0.27c-5.29,0.24-10.36,2.19-14.77,5.05
			c-0.16-0.05-0.33-0.08-0.51-0.1c-0.68-0.06-1.37,0.15-1.9,0.58c-0.55,0.45-0.9,1.1-0.96,1.81c-0.01,0.07-0.01,0.14-0.01,0.21
			c-0.2,0.17-0.4,0.33-0.6,0.5c-1.24,1.05-2.42,2.14-3.5,3.35c-0.24,0.27-0.47,0.54-0.69,0.82c-0.29-0.04-0.58-0.04-0.83,0
			c-0.64,0.11-1.22,0.47-1.59,1s-0.53,1.19-0.42,1.83c0.06,0.2,0.12,0.4,0.18,0.6c0.05,0.11,0.1,0.21,0.16,0.3
			c-0.53,0.96-1.01,1.94-1.43,2.93c-0.56,1.29-0.97,2.65-1.3,4.01c-0.36,1.5-0.62,3-0.65,4.55c-0.03,1.45,0.1,2.91,0.27,4.35
			c0.18,1.49,0.49,2.96,0.92,4.39c0.41,1.36,0.89,2.69,1.42,4.01c0.58,1.43,1.22,2.83,1.99,4.17c1.52,2.66,3.41,5.04,5.55,7.22
			c2.06,2.1,4.33,3.97,6.91,5.38c0.67,0.37,1.36,0.72,2.07,1.01c0.62,0.25,1.27,0.43,1.92,0.6c1.54,0.4,3.12,0.69,4.71,0.85
			c2.91,0.3,5.89,0.1,8.76-0.47c2.87-0.57,5.62-1.58,8.24-2.87c2.61-1.29,5.05-2.91,7.27-4.77c1.08-0.9,2.09-1.88,3.05-2.9
			c1.13-1.19,2.11-2.47,2.96-3.87C382.14,499.9,383.24,496.98,383.98,494.02z M337.01,504.23c-0.13,0.11-0.24,0.23-0.33,0.35
			c-0.87-0.96-1.69-1.97-2.45-3.03c0.01,0.01,0.02,0.02,0.03,0.03c0.86,0.8,1.78,1.54,2.68,2.3c0.09,0.07,0.17,0.14,0.26,0.21
			C337.13,504.14,337.07,504.18,337.01,504.23z M380.62,484.21c-0.25,0.08-0.48,0.22-0.67,0.41c-0.19-0.06-0.41-0.08-0.63-0.06
			c-0.03-0.12-0.06-0.23-0.1-0.35c0.2-0.5,0.4-0.99,0.6-1.49c0.2-0.03,0.39-0.07,0.59-0.1
			C380.49,483.15,380.56,483.68,380.62,484.21z M333.51,472.59c-0.04-0.04-0.08-0.08-0.12-0.11c0.04-0.05,0.08-0.1,0.11-0.15
			c0.29,0.32,0.66,0.57,1.06,0.73c-0.07,0.1-0.14,0.2-0.21,0.29C334.07,473.1,333.79,472.85,333.51,472.59z M349,485.07
			c0.38-0.16,0.72-0.38,1.05-0.62c0.05-0.04,0.1-0.08,0.15-0.12c0.02,0.17,0.05,0.34,0.07,0.51c0.04,0.2,0.08,0.4,0.12,0.59
			c0.07,0.31,0.16,0.62,0.26,0.92c0.12,0.23,0.26,0.46,0.4,0.67c-0.41-0.28-0.82-0.55-1.23-0.83c-0.45-0.31-0.88-0.64-1.32-0.98
			C348.67,485.18,348.84,485.13,349,485.07z M354.85,481.05c0.13,0.04,0.26,0.08,0.39,0.13c-0.08,0.05-0.17,0.11-0.26,0.16
			c-0.02,0.01-0.03,0.02-0.05,0.03C354.91,481.27,354.88,481.16,354.85,481.05z M354.66,488.04c0.12-0.06,0.24-0.12,0.35-0.19
			c-0.04,0.22-0.08,0.44-0.13,0.66c-0.07,0.26-0.15,0.51-0.23,0.77c-0.61-0.35-1.2-0.71-1.8-1.08
			C353.45,488.33,354.14,488.31,354.66,488.04z M368.2,491.3c0-0.01,0-0.02,0.01-0.03c-0.01,0.16-0.01,0.32-0.01,0.48
			c-0.02,0.85,0.27,1.63,0.98,2.13c0.26,0.19,0.55,0.31,0.86,0.38c-0.02,0.14-0.05,0.27-0.07,0.4c-0.65-0.14-1.31-0.27-1.96-0.41
			c-0.48-0.11-0.97-0.22-1.45-0.33c0.35-0.17,0.65-0.42,0.88-0.74C367.94,492.64,368.05,492,368.2,491.3z M374.56,495.66
			c0.04-0.08,0.08-0.15,0.12-0.23c0.38,0.03,0.76-0.04,1.1-0.22c0.06,0.18,0.15,0.34,0.25,0.49c0,0.13,0.02,0.26,0.03,0.39
			c-0.26-0.16-0.55-0.25-0.87-0.31C374.99,495.75,374.78,495.71,374.56,495.66z M347.66,467.19c1.95-1.15,4.04-2.08,6.19-2.77
			c1.51-0.43,3.02-0.72,4.58-0.82c1.41-0.02,2.81,0.11,4.2,0.33c0.03,0.03,0.06,0.05,0.09,0.08c0.34,0.34,0.66,0.69,0.95,1.08
			c0.23,0.41,0.43,0.84,0.61,1.28c0.32,0.74,1.24,1.06,1.96,0.74c0.75-0.34,1.05-1.22,0.74-1.96c-0.01-0.01-0.01-0.03-0.02-0.04
			c0.71,0.27,1.4,0.57,2.09,0.91c1.31,0.72,2.54,1.54,3.66,2.52c1.8,1.75,3.33,3.76,4.67,5.88c0.46,0.76,0.89,1.54,1.27,2.34
			c0.08,0.17,0.15,0.34,0.23,0.5c-0.18,0.03-0.36,0.05-0.54,0.08c-1.19,0.16-2.39,0.28-3.59,0.41c-0.53,0.06-1.07,0.07-1.6,0.1
			c-0.53,0.03-1.07,0.06-1.6,0.1c-1.86,0.04-3.71,0-5.56-0.16c-1.87-0.17-3.73-0.46-5.57-0.84c-2.97-0.68-5.86-1.61-8.58-2.99
			c-1.29-0.71-2.54-1.49-3.73-2.36c-1.05-0.77-2.05-1.61-3.02-2.48C345.92,468.41,346.77,467.78,347.66,467.19z M341.82,465.03
			c-0.16,0.13-0.31,0.26-0.46,0.39c-0.02-0.02-0.04-0.04-0.06-0.06c0.16-0.1,0.31-0.21,0.47-0.31
			C341.79,465.05,341.8,465.04,341.82,465.03z M329.23,481.42c0.39-1.61,0.93-3.16,1.6-4.66c0.29,0.27,0.59,0.54,0.88,0.81
			c-0.13,0.24-0.26,0.48-0.39,0.72c-0.47,0.9-0.95,1.79-1.35,2.72c-0.5,1.16-0.84,2.37-1.17,3.59c0,0.01-0.01,0.03-0.01,0.04
			C328.86,483.56,329.01,482.49,329.23,481.42z M375.07,502.73c-1.95,2.01-4.17,3.78-6.53,5.28c-1.88,1.13-3.88,2.1-5.94,2.86
			c-0.08-0.45-0.33-0.83-0.69-1.09c-0.24-0.17-0.52-0.28-0.83-0.32c-1.55-0.19-3.07-0.5-4.59-0.81c-0.47-0.11-0.94-0.22-1.42-0.33
			c-0.6-0.14-1.2-0.32-1.8-0.48c-2.61-0.71-5.15-1.66-7.56-2.9c-2.01-1.1-3.88-2.38-5.7-3.77c-0.76-0.59-1.49-1.23-2.23-1.84
			c-1.11-0.92-2.16-1.91-3.22-2.89c-0.9-0.89-1.79-1.8-2.62-2.76c-0.83-0.96-1.59-1.99-2.35-3.01c-0.07-0.09-0.14-0.17-0.22-0.24
			c-0.08-0.4-0.17-0.8-0.23-1.2c0.31,0.23,0.68,0.38,1.07,0.41c0.55,0.05,1.12-0.12,1.55-0.47c0.13-0.14,0.26-0.28,0.39-0.42
			c0.21-0.3,0.34-0.64,0.38-1.01c0.14-0.54,0.3-1.09,0.49-1.61c0.43-1.13,0.86-2.24,1.4-3.32c0.35-0.64,0.71-1.27,1.09-1.89
			c1.04,0.92,2.09,1.83,3.13,2.75c0.48,0.42,0.93,0.88,1.44,1.26c1.91,1.46,3.82,2.93,5.73,4.39c1.43,1.1,2.95,2.08,4.48,3.03
			c2.62,1.61,5.38,3.02,8.25,4.14c3.19,1.25,6.57,1.97,9.95,2.5c2.11,0.33,4.22,0.55,6.37,0.6c0.51,0.01,0.97-0.09,1.38-0.42
			c0.4-0.32,0.65-0.8,0.69-1.31c0-0.02,0-0.04,0-0.05c0.23,0.17,0.48,0.3,0.76,0.43c0.1,0.05,0.22,0.08,0.34,0.11
			c-0.1,0.2-0.19,0.41-0.3,0.61C376.98,500.31,376.1,501.57,375.07,502.73z"/>
	</g>
</g>
</svg>
